ISO-10303-21;
HEADER;
/* Generated by software containing ST-Developer
 * from STEP Tools, Inc. (www.steptools.com) 
 */

FILE_DESCRIPTION(
/* description */ (''),
/* implementation_level */ '2;1');

FILE_NAME(
/* name */ 'GRACLOCK.step',
/* time_stamp */ '2026-05-08T22:15:58+02:00',
/* author */ (''),
/* organization */ (''),
/* preprocessor_version */ 'ST-DEVELOPER v20.1',
/* originating_system */ 'Autodesk Translation Framework v15.8.0.0',
/* authorisation */ '');

FILE_SCHEMA (('AUTOMOTIVE_DESIGN { 1 0 10303 214 3 1 1 }'));
ENDSEC;

DATA;
#10=MECHANICAL_DESIGN_GEOMETRIC_PRESENTATION_REPRESENTATION('',(#13,#14,
#15,#16),#1768);
#11=SHAPE_REPRESENTATION_RELATIONSHIP('SRR','None',#1775,#12);
#12=ADVANCED_BREP_SHAPE_REPRESENTATION('',(#17,#18,#19,#20),#1767);
#13=STYLED_ITEM('',(#1784),#17);
#14=STYLED_ITEM('',(#1784),#18);
#15=STYLED_ITEM('',(#1784),#19);
#16=STYLED_ITEM('',(#1784),#20);
#17=MANIFOLD_SOLID_BREP('Bry\X2\0142\X0\a1',#1082);
#18=MANIFOLD_SOLID_BREP('Bry\X2\0142\X0\a2',#1083);
#19=MANIFOLD_SOLID_BREP('Bry\X2\0142\X0\a9',#1084);
#20=MANIFOLD_SOLID_BREP('Bry\X2\0142\X0\a10',#1085);
#21=LINE('',#1477,#139);
#22=LINE('',#1481,#140);
#23=LINE('',#1486,#141);
#24=LINE('',#1488,#142);
#25=LINE('',#1490,#143);
#26=LINE('',#1491,#144);
#27=LINE('',#1494,#145);
#28=LINE('',#1496,#146);
#29=LINE('',#1497,#147);
#30=LINE('',#1500,#148);
#31=LINE('',#1502,#149);
#32=LINE('',#1503,#150);
#33=LINE('',#1505,#151);
#34=LINE('',#1506,#152);
#35=LINE('',#1510,#153);
#36=LINE('',#1512,#154);
#37=LINE('',#1514,#155);
#38=LINE('',#1515,#156);
#39=LINE('',#1518,#157);
#40=LINE('',#1520,#158);
#41=LINE('',#1521,#159);
#42=LINE('',#1524,#160);
#43=LINE('',#1526,#161);
#44=LINE('',#1527,#162);
#45=LINE('',#1529,#163);
#46=LINE('',#1530,#164);
#47=LINE('',#1535,#165);
#48=LINE('',#1541,#166);
#49=LINE('',#1547,#167);
#50=LINE('',#1553,#168);
#51=LINE('',#1558,#169);
#52=LINE('',#1560,#170);
#53=LINE('',#1562,#171);
#54=LINE('',#1563,#172);
#55=LINE('',#1566,#173);
#56=LINE('',#1568,#174);
#57=LINE('',#1569,#175);
#58=LINE('',#1572,#176);
#59=LINE('',#1574,#177);
#60=LINE('',#1575,#178);
#61=LINE('',#1577,#179);
#62=LINE('',#1578,#180);
#63=LINE('',#1596,#181);
#64=LINE('',#1598,#182);
#65=LINE('',#1600,#183);
#66=LINE('',#1602,#184);
#67=LINE('',#1604,#185);
#68=LINE('',#1606,#186);
#69=LINE('',#1608,#187);
#70=LINE('',#1610,#188);
#71=LINE('',#1612,#189);
#72=LINE('',#1613,#190);
#73=LINE('',#1616,#191);
#74=LINE('',#1618,#192);
#75=LINE('',#1619,#193);
#76=LINE('',#1622,#194);
#77=LINE('',#1623,#195);
#78=LINE('',#1626,#196);
#79=LINE('',#1628,#197);
#80=LINE('',#1630,#198);
#81=LINE('',#1632,#199);
#82=LINE('',#1634,#200);
#83=LINE('',#1636,#201);
#84=LINE('',#1637,#202);
#85=LINE('',#1640,#203);
#86=LINE('',#1642,#204);
#87=LINE('',#1644,#205);
#88=LINE('',#1645,#206);
#89=LINE('',#1648,#207);
#90=LINE('',#1650,#208);
#91=LINE('',#1652,#209);
#92=LINE('',#1653,#210);
#93=LINE('',#1656,#211);
#94=LINE('',#1658,#212);
#95=LINE('',#1660,#213);
#96=LINE('',#1661,#214);
#97=LINE('',#1664,#215);
#98=LINE('',#1666,#216);
#99=LINE('',#1667,#217);
#100=LINE('',#1670,#218);
#101=LINE('',#1672,#219);
#102=LINE('',#1673,#220);
#103=LINE('',#1676,#221);
#104=LINE('',#1678,#222);
#105=LINE('',#1679,#223);
#106=LINE('',#1682,#224);
#107=LINE('',#1683,#225);
#108=LINE('',#1686,#226);
#109=LINE('',#1688,#227);
#110=LINE('',#1689,#228);
#111=LINE('',#1691,#229);
#112=LINE('',#1693,#230);
#113=LINE('',#1695,#231);
#114=LINE('',#1697,#232);
#115=LINE('',#1698,#233);
#116=LINE('',#1702,#234);
#117=LINE('',#1705,#235);
#118=LINE('',#1706,#236);
#119=LINE('',#1707,#237);
#120=LINE('',#1709,#238);
#121=LINE('',#1724,#239);
#122=LINE('',#1726,#240);
#123=LINE('',#1728,#241);
#124=LINE('',#1730,#242);
#125=LINE('',#1732,#243);
#126=LINE('',#1736,#244);
#127=LINE('',#1738,#245);
#128=LINE('',#1740,#246);
#129=LINE('',#1741,#247);
#130=LINE('',#1745,#248);
#131=LINE('',#1746,#249);
#132=LINE('',#1747,#250);
#133=LINE('',#1750,#251);
#134=LINE('',#1752,#252);
#135=LINE('',#1753,#253);
#136=LINE('',#1755,#254);
#137=LINE('',#1756,#255);
#138=LINE('',#1764,#256);
#139=VECTOR('',#1194,37.5);
#140=VECTOR('',#1199,40.0000005960465);
#141=VECTOR('',#1204,10.);
#142=VECTOR('',#1205,10.);
#143=VECTOR('',#1206,10.);
#144=VECTOR('',#1207,10.);
#145=VECTOR('',#1210,10.);
#146=VECTOR('',#1211,10.);
#147=VECTOR('',#1212,10.);
#148=VECTOR('',#1215,10.);
#149=VECTOR('',#1216,10.);
#150=VECTOR('',#1217,10.);
#151=VECTOR('',#1220,10.);
#152=VECTOR('',#1221,10.);
#153=VECTOR('',#1224,10.);
#154=VECTOR('',#1225,10.);
#155=VECTOR('',#1226,10.);
#156=VECTOR('',#1227,10.);
#157=VECTOR('',#1230,10.);
#158=VECTOR('',#1231,10.);
#159=VECTOR('',#1232,10.);
#160=VECTOR('',#1235,10.);
#161=VECTOR('',#1236,10.);
#162=VECTOR('',#1237,10.);
#163=VECTOR('',#1240,10.);
#164=VECTOR('',#1241,10.);
#165=VECTOR('',#1246,1.30092609592377);
#166=VECTOR('',#1253,1.29999997168591);
#167=VECTOR('',#1260,1.30096150990842);
#168=VECTOR('',#1267,1.30000006231564);
#169=VECTOR('',#1272,10.);
#170=VECTOR('',#1273,10.);
#171=VECTOR('',#1274,10.);
#172=VECTOR('',#1275,10.);
#173=VECTOR('',#1278,10.);
#174=VECTOR('',#1279,10.);
#175=VECTOR('',#1280,10.);
#176=VECTOR('',#1283,10.);
#177=VECTOR('',#1284,10.);
#178=VECTOR('',#1285,10.);
#179=VECTOR('',#1288,10.);
#180=VECTOR('',#1289,10.);
#181=VECTOR('',#1312,10.);
#182=VECTOR('',#1313,10.);
#183=VECTOR('',#1314,10.);
#184=VECTOR('',#1315,10.);
#185=VECTOR('',#1316,10.);
#186=VECTOR('',#1317,10.);
#187=VECTOR('',#1318,10.);
#188=VECTOR('',#1319,10.);
#189=VECTOR('',#1320,10.);
#190=VECTOR('',#1321,10.);
#191=VECTOR('',#1324,10.);
#192=VECTOR('',#1325,10.);
#193=VECTOR('',#1326,10.);
#194=VECTOR('',#1329,10.);
#195=VECTOR('',#1330,10.);
#196=VECTOR('',#1333,10.);
#197=VECTOR('',#1334,10.);
#198=VECTOR('',#1335,10.);
#199=VECTOR('',#1336,10.);
#200=VECTOR('',#1337,10.);
#201=VECTOR('',#1338,10.);
#202=VECTOR('',#1339,10.);
#203=VECTOR('',#1342,10.);
#204=VECTOR('',#1343,10.);
#205=VECTOR('',#1344,10.);
#206=VECTOR('',#1345,10.);
#207=VECTOR('',#1348,10.);
#208=VECTOR('',#1349,10.);
#209=VECTOR('',#1350,10.);
#210=VECTOR('',#1351,10.);
#211=VECTOR('',#1354,10.);
#212=VECTOR('',#1355,10.);
#213=VECTOR('',#1356,10.);
#214=VECTOR('',#1357,10.);
#215=VECTOR('',#1360,10.);
#216=VECTOR('',#1361,10.);
#217=VECTOR('',#1362,10.);
#218=VECTOR('',#1365,10.);
#219=VECTOR('',#1366,10.);
#220=VECTOR('',#1367,10.);
#221=VECTOR('',#1370,10.);
#222=VECTOR('',#1371,10.);
#223=VECTOR('',#1372,10.);
#224=VECTOR('',#1375,10.);
#225=VECTOR('',#1376,10.);
#226=VECTOR('',#1379,10.);
#227=VECTOR('',#1380,10.);
#228=VECTOR('',#1381,10.);
#229=VECTOR('',#1384,10.);
#230=VECTOR('',#1387,10.);
#231=VECTOR('',#1390,10.);
#232=VECTOR('',#1391,10.);
#233=VECTOR('',#1392,10.);
#234=VECTOR('',#1397,10.);
#235=VECTOR('',#1400,10.);
#236=VECTOR('',#1401,10.);
#237=VECTOR('',#1402,10.);
#238=VECTOR('',#1405,10.);
#239=VECTOR('',#1424,1.5);
#240=VECTOR('',#1427,1.5);
#241=VECTOR('',#1430,1.5);
#242=VECTOR('',#1433,1.5);
#243=VECTOR('',#1436,40.0000005960464);
#244=VECTOR('',#1439,10.);
#245=VECTOR('',#1440,10.);
#246=VECTOR('',#1441,10.);
#247=VECTOR('',#1442,10.);
#248=VECTOR('',#1445,10.);
#249=VECTOR('',#1446,10.);
#250=VECTOR('',#1447,10.);
#251=VECTOR('',#1450,10.);
#252=VECTOR('',#1451,10.);
#253=VECTOR('',#1452,10.);
#254=VECTOR('',#1455,10.);
#255=VECTOR('',#1456,10.);
#256=VECTOR('',#1467,37.5);
#257=CYLINDRICAL_SURFACE('',#1102,37.5);
#258=CYLINDRICAL_SURFACE('',#1104,40.0000005960465);
#259=CYLINDRICAL_SURFACE('',#1115,1.30092609592377);
#260=CYLINDRICAL_SURFACE('',#1118,1.29999997168591);
#261=CYLINDRICAL_SURFACE('',#1121,1.30096150990842);
#262=CYLINDRICAL_SURFACE('',#1124,1.30000006231564);
#263=CYLINDRICAL_SURFACE('',#1168,1.3);
#264=CYLINDRICAL_SURFACE('',#1169,1.3);
#265=CYLINDRICAL_SURFACE('',#1170,1.3);
#266=CYLINDRICAL_SURFACE('',#1171,1.3);
#267=CYLINDRICAL_SURFACE('',#1172,40.0000005960464);
#268=CYLINDRICAL_SURFACE('',#1181,37.5);
#269=FACE_BOUND('',#351,.T.);
#270=FACE_BOUND('',#355,.T.);
#271=FACE_BOUND('',#373,.T.);
#272=FACE_BOUND('',#374,.T.);
#273=FACE_BOUND('',#375,.T.);
#274=FACE_BOUND('',#376,.T.);
#275=FACE_BOUND('',#377,.T.);
#276=FACE_BOUND('',#378,.T.);
#277=FACE_BOUND('',#380,.T.);
#278=FACE_BOUND('',#381,.T.);
#279=FACE_BOUND('',#382,.T.);
#280=FACE_BOUND('',#383,.T.);
#281=FACE_BOUND('',#384,.T.);
#282=FACE_BOUND('',#385,.T.);
#283=FACE_BOUND('',#405,.T.);
#284=FACE_BOUND('',#412,.T.);
#285=FACE_BOUND('',#413,.T.);
#286=FACE_BOUND('',#414,.T.);
#287=FACE_BOUND('',#415,.T.);
#288=FACE_BOUND('',#416,.T.);
#289=FACE_BOUND('',#427,.T.);
#290=FACE_BOUND('',#429,.T.);
#291=FACE_OUTER_BOUND('',#350,.T.);
#292=FACE_OUTER_BOUND('',#352,.T.);
#293=FACE_OUTER_BOUND('',#353,.T.);
#294=FACE_OUTER_BOUND('',#354,.T.);
#295=FACE_OUTER_BOUND('',#356,.T.);
#296=FACE_OUTER_BOUND('',#357,.T.);
#297=FACE_OUTER_BOUND('',#358,.T.);
#298=FACE_OUTER_BOUND('',#359,.T.);
#299=FACE_OUTER_BOUND('',#360,.T.);
#300=FACE_OUTER_BOUND('',#361,.T.);
#301=FACE_OUTER_BOUND('',#362,.T.);
#302=FACE_OUTER_BOUND('',#363,.T.);
#303=FACE_OUTER_BOUND('',#364,.T.);
#304=FACE_OUTER_BOUND('',#365,.T.);
#305=FACE_OUTER_BOUND('',#366,.T.);
#306=FACE_OUTER_BOUND('',#367,.T.);
#307=FACE_OUTER_BOUND('',#368,.T.);
#308=FACE_OUTER_BOUND('',#369,.T.);
#309=FACE_OUTER_BOUND('',#370,.T.);
#310=FACE_OUTER_BOUND('',#371,.T.);
#311=FACE_OUTER_BOUND('',#372,.T.);
#312=FACE_OUTER_BOUND('',#379,.T.);
#313=FACE_OUTER_BOUND('',#386,.T.);
#314=FACE_OUTER_BOUND('',#387,.T.);
#315=FACE_OUTER_BOUND('',#388,.T.);
#316=FACE_OUTER_BOUND('',#389,.T.);
#317=FACE_OUTER_BOUND('',#390,.T.);
#318=FACE_OUTER_BOUND('',#391,.T.);
#319=FACE_OUTER_BOUND('',#392,.T.);
#320=FACE_OUTER_BOUND('',#393,.T.);
#321=FACE_OUTER_BOUND('',#394,.T.);
#322=FACE_OUTER_BOUND('',#395,.T.);
#323=FACE_OUTER_BOUND('',#396,.T.);
#324=FACE_OUTER_BOUND('',#397,.T.);
#325=FACE_OUTER_BOUND('',#398,.T.);
#326=FACE_OUTER_BOUND('',#399,.T.);
#327=FACE_OUTER_BOUND('',#400,.T.);
#328=FACE_OUTER_BOUND('',#401,.T.);
#329=FACE_OUTER_BOUND('',#402,.T.);
#330=FACE_OUTER_BOUND('',#403,.T.);
#331=FACE_OUTER_BOUND('',#404,.T.);
#332=FACE_OUTER_BOUND('',#406,.T.);
#333=FACE_OUTER_BOUND('',#407,.T.);
#334=FACE_OUTER_BOUND('',#408,.T.);
#335=FACE_OUTER_BOUND('',#409,.T.);
#336=FACE_OUTER_BOUND('',#410,.T.);
#337=FACE_OUTER_BOUND('',#411,.T.);
#338=FACE_OUTER_BOUND('',#417,.T.);
#339=FACE_OUTER_BOUND('',#418,.T.);
#340=FACE_OUTER_BOUND('',#419,.T.);
#341=FACE_OUTER_BOUND('',#420,.T.);
#342=FACE_OUTER_BOUND('',#421,.T.);
#343=FACE_OUTER_BOUND('',#422,.T.);
#344=FACE_OUTER_BOUND('',#423,.T.);
#345=FACE_OUTER_BOUND('',#424,.T.);
#346=FACE_OUTER_BOUND('',#425,.T.);
#347=FACE_OUTER_BOUND('',#426,.T.);
#348=FACE_OUTER_BOUND('',#428,.T.);
#349=FACE_OUTER_BOUND('',#430,.T.);
#350=EDGE_LOOP('',(#692));
#351=EDGE_LOOP('',(#693));
#352=EDGE_LOOP('',(#694,#695,#696,#697));
#353=EDGE_LOOP('',(#698,#699,#700,#701));
#354=EDGE_LOOP('',(#702));
#355=EDGE_LOOP('',(#703));
#356=EDGE_LOOP('',(#704,#705,#706,#707));
#357=EDGE_LOOP('',(#708,#709,#710,#711));
#358=EDGE_LOOP('',(#712,#713,#714,#715));
#359=EDGE_LOOP('',(#716,#717,#718,#719));
#360=EDGE_LOOP('',(#720,#721,#722,#723));
#361=EDGE_LOOP('',(#724,#725,#726,#727));
#362=EDGE_LOOP('',(#728,#729,#730,#731));
#363=EDGE_LOOP('',(#732,#733,#734,#735));
#364=EDGE_LOOP('',(#736,#737,#738,#739));
#365=EDGE_LOOP('',(#740,#741,#742,#743));
#366=EDGE_LOOP('',(#744,#745,#746,#747));
#367=EDGE_LOOP('',(#748,#749,#750,#751));
#368=EDGE_LOOP('',(#752,#753,#754,#755));
#369=EDGE_LOOP('',(#756,#757,#758,#759));
#370=EDGE_LOOP('',(#760,#761,#762,#763));
#371=EDGE_LOOP('',(#764,#765,#766,#767));
#372=EDGE_LOOP('',(#768,#769,#770,#771));
#373=EDGE_LOOP('',(#772,#773,#774,#775));
#374=EDGE_LOOP('',(#776,#777,#778,#779));
#375=EDGE_LOOP('',(#780));
#376=EDGE_LOOP('',(#781));
#377=EDGE_LOOP('',(#782));
#378=EDGE_LOOP('',(#783));
#379=EDGE_LOOP('',(#784,#785,#786,#787));
#380=EDGE_LOOP('',(#788,#789,#790,#791));
#381=EDGE_LOOP('',(#792,#793,#794,#795));
#382=EDGE_LOOP('',(#796));
#383=EDGE_LOOP('',(#797));
#384=EDGE_LOOP('',(#798));
#385=EDGE_LOOP('',(#799));
#386=EDGE_LOOP('',(#800));
#387=EDGE_LOOP('',(#801));
#388=EDGE_LOOP('',(#802));
#389=EDGE_LOOP('',(#803));
#390=EDGE_LOOP('',(#804,#805,#806,#807,#808,#809,#810,#811,#812,#813));
#391=EDGE_LOOP('',(#814,#815,#816,#817));
#392=EDGE_LOOP('',(#818,#819,#820,#821));
#393=EDGE_LOOP('',(#822,#823,#824,#825,#826,#827,#828,#829,#830));
#394=EDGE_LOOP('',(#831,#832,#833,#834,#835,#836));
#395=EDGE_LOOP('',(#837,#838,#839,#840,#841,#842));
#396=EDGE_LOOP('',(#843,#844,#845,#846,#847,#848,#849));
#397=EDGE_LOOP('',(#850,#851,#852,#853));
#398=EDGE_LOOP('',(#854,#855,#856,#857));
#399=EDGE_LOOP('',(#858,#859,#860,#861));
#400=EDGE_LOOP('',(#862,#863,#864,#865));
#401=EDGE_LOOP('',(#866,#867,#868,#869));
#402=EDGE_LOOP('',(#870,#871,#872,#873));
#403=EDGE_LOOP('',(#874,#875,#876,#877));
#404=EDGE_LOOP('',(#878,#879,#880,#881,#882,#883,#884,#885));
#405=EDGE_LOOP('',(#886));
#406=EDGE_LOOP('',(#887,#888,#889,#890));
#407=EDGE_LOOP('',(#891,#892,#893,#894,#895));
#408=EDGE_LOOP('',(#896,#897,#898,#899));
#409=EDGE_LOOP('',(#900,#901,#902,#903,#904,#905,#906,#907));
#410=EDGE_LOOP('',(#908,#909,#910,#911));
#411=EDGE_LOOP('',(#912,#913,#914,#915,#916,#917,#918,#919,#920));
#412=EDGE_LOOP('',(#921));
#413=EDGE_LOOP('',(#922));
#414=EDGE_LOOP('',(#923));
#415=EDGE_LOOP('',(#924));
#416=EDGE_LOOP('',(#925));
#417=EDGE_LOOP('',(#926,#927,#928,#929));
#418=EDGE_LOOP('',(#930,#931,#932,#933));
#419=EDGE_LOOP('',(#934,#935,#936,#937));
#420=EDGE_LOOP('',(#938,#939,#940,#941));
#421=EDGE_LOOP('',(#942,#943,#944,#945));
#422=EDGE_LOOP('',(#946,#947,#948,#949));
#423=EDGE_LOOP('',(#950,#951,#952,#953));
#424=EDGE_LOOP('',(#954,#955,#956,#957));
#425=EDGE_LOOP('',(#958,#959,#960,#961));
#426=EDGE_LOOP('',(#962));
#427=EDGE_LOOP('',(#963,#964,#965,#966));
#428=EDGE_LOOP('',(#967));
#429=EDGE_LOOP('',(#968,#969,#970,#971));
#430=EDGE_LOOP('',(#972,#973,#974,#975));
#431=CIRCLE('',#1100,40.0000005960465);
#432=CIRCLE('',#1101,37.5);
#433=CIRCLE('',#1103,37.5);
#434=CIRCLE('',#1105,40.0000005960465);
#435=CIRCLE('',#1116,1.30092609592377);
#436=CIRCLE('',#1117,1.30092609592377);
#437=CIRCLE('',#1119,1.29999997168591);
#438=CIRCLE('',#1120,1.29999997168591);
#439=CIRCLE('',#1122,1.30096150990842);
#440=CIRCLE('',#1123,1.30096150990842);
#441=CIRCLE('',#1125,1.30000006231564);
#442=CIRCLE('',#1126,1.30000006231564);
#443=CIRCLE('',#1134,1.3);
#444=CIRCLE('',#1136,1.3);
#445=CIRCLE('',#1138,1.3);
#446=CIRCLE('',#1140,1.3);
#447=CIRCLE('',#1156,40.0000005960464);
#448=CIRCLE('',#1163,40.0000005960464);
#449=CIRCLE('',#1164,1.3);
#450=CIRCLE('',#1165,1.3);
#451=CIRCLE('',#1166,1.3);
#452=CIRCLE('',#1167,1.3);
#453=CIRCLE('',#1178,37.5);
#454=CIRCLE('',#1180,37.5);
#455=VERTEX_POINT('',#1470);
#456=VERTEX_POINT('',#1472);
#457=VERTEX_POINT('',#1475);
#458=VERTEX_POINT('',#1479);
#459=VERTEX_POINT('',#1484);
#460=VERTEX_POINT('',#1485);
#461=VERTEX_POINT('',#1487);
#462=VERTEX_POINT('',#1489);
#463=VERTEX_POINT('',#1493);
#464=VERTEX_POINT('',#1495);
#465=VERTEX_POINT('',#1499);
#466=VERTEX_POINT('',#1501);
#467=VERTEX_POINT('',#1508);
#468=VERTEX_POINT('',#1509);
#469=VERTEX_POINT('',#1511);
#470=VERTEX_POINT('',#1513);
#471=VERTEX_POINT('',#1517);
#472=VERTEX_POINT('',#1519);
#473=VERTEX_POINT('',#1523);
#474=VERTEX_POINT('',#1525);
#475=VERTEX_POINT('',#1532);
#476=VERTEX_POINT('',#1534);
#477=VERTEX_POINT('',#1538);
#478=VERTEX_POINT('',#1540);
#479=VERTEX_POINT('',#1544);
#480=VERTEX_POINT('',#1546);
#481=VERTEX_POINT('',#1550);
#482=VERTEX_POINT('',#1552);
#483=VERTEX_POINT('',#1556);
#484=VERTEX_POINT('',#1557);
#485=VERTEX_POINT('',#1559);
#486=VERTEX_POINT('',#1561);
#487=VERTEX_POINT('',#1565);
#488=VERTEX_POINT('',#1567);
#489=VERTEX_POINT('',#1571);
#490=VERTEX_POINT('',#1573);
#491=VERTEX_POINT('',#1582);
#492=VERTEX_POINT('',#1585);
#493=VERTEX_POINT('',#1588);
#494=VERTEX_POINT('',#1591);
#495=VERTEX_POINT('',#1594);
#496=VERTEX_POINT('',#1595);
#497=VERTEX_POINT('',#1597);
#498=VERTEX_POINT('',#1599);
#499=VERTEX_POINT('',#1601);
#500=VERTEX_POINT('',#1603);
#501=VERTEX_POINT('',#1605);
#502=VERTEX_POINT('',#1607);
#503=VERTEX_POINT('',#1609);
#504=VERTEX_POINT('',#1611);
#505=VERTEX_POINT('',#1615);
#506=VERTEX_POINT('',#1617);
#507=VERTEX_POINT('',#1621);
#508=VERTEX_POINT('',#1625);
#509=VERTEX_POINT('',#1627);
#510=VERTEX_POINT('',#1629);
#511=VERTEX_POINT('',#1631);
#512=VERTEX_POINT('',#1633);
#513=VERTEX_POINT('',#1635);
#514=VERTEX_POINT('',#1639);
#515=VERTEX_POINT('',#1641);
#516=VERTEX_POINT('',#1643);
#517=VERTEX_POINT('',#1647);
#518=VERTEX_POINT('',#1649);
#519=VERTEX_POINT('',#1651);
#520=VERTEX_POINT('',#1655);
#521=VERTEX_POINT('',#1657);
#522=VERTEX_POINT('',#1659);
#523=VERTEX_POINT('',#1663);
#524=VERTEX_POINT('',#1665);
#525=VERTEX_POINT('',#1669);
#526=VERTEX_POINT('',#1671);
#527=VERTEX_POINT('',#1675);
#528=VERTEX_POINT('',#1677);
#529=VERTEX_POINT('',#1681);
#530=VERTEX_POINT('',#1685);
#531=VERTEX_POINT('',#1687);
#532=VERTEX_POINT('',#1696);
#533=VERTEX_POINT('',#1699);
#534=VERTEX_POINT('',#1704);
#535=VERTEX_POINT('',#1713);
#536=VERTEX_POINT('',#1715);
#537=VERTEX_POINT('',#1717);
#538=VERTEX_POINT('',#1719);
#539=VERTEX_POINT('',#1721);
#540=VERTEX_POINT('',#1734);
#541=VERTEX_POINT('',#1735);
#542=VERTEX_POINT('',#1737);
#543=VERTEX_POINT('',#1739);
#544=VERTEX_POINT('',#1743);
#545=VERTEX_POINT('',#1744);
#546=VERTEX_POINT('',#1749);
#547=VERTEX_POINT('',#1751);
#548=VERTEX_POINT('',#1758);
#549=VERTEX_POINT('',#1761);
#550=EDGE_CURVE('',#455,#455,#431,.T.);
#551=EDGE_CURVE('',#456,#456,#432,.T.);
#552=EDGE_CURVE('',#457,#457,#433,.T.);
#553=EDGE_CURVE('',#457,#456,#21,.T.);
#554=EDGE_CURVE('',#458,#458,#434,.T.);
#555=EDGE_CURVE('',#458,#455,#22,.T.);
#556=EDGE_CURVE('',#459,#460,#23,.T.);
#557=EDGE_CURVE('',#461,#459,#24,.T.);
#558=EDGE_CURVE('',#462,#461,#25,.T.);
#559=EDGE_CURVE('',#462,#460,#26,.T.);
#560=EDGE_CURVE('',#460,#463,#27,.T.);
#561=EDGE_CURVE('',#464,#462,#28,.T.);
#562=EDGE_CURVE('',#464,#463,#29,.T.);
#563=EDGE_CURVE('',#463,#465,#30,.T.);
#564=EDGE_CURVE('',#466,#464,#31,.T.);
#565=EDGE_CURVE('',#466,#465,#32,.T.);
#566=EDGE_CURVE('',#465,#459,#33,.T.);
#567=EDGE_CURVE('',#461,#466,#34,.T.);
#568=EDGE_CURVE('',#467,#468,#35,.T.);
#569=EDGE_CURVE('',#469,#467,#36,.T.);
#570=EDGE_CURVE('',#470,#469,#37,.T.);
#571=EDGE_CURVE('',#470,#468,#38,.T.);
#572=EDGE_CURVE('',#468,#471,#39,.T.);
#573=EDGE_CURVE('',#472,#470,#40,.T.);
#574=EDGE_CURVE('',#472,#471,#41,.T.);
#575=EDGE_CURVE('',#471,#473,#42,.T.);
#576=EDGE_CURVE('',#474,#472,#43,.T.);
#577=EDGE_CURVE('',#474,#473,#44,.T.);
#578=EDGE_CURVE('',#473,#467,#45,.T.);
#579=EDGE_CURVE('',#469,#474,#46,.T.);
#580=EDGE_CURVE('',#475,#475,#435,.T.);
#581=EDGE_CURVE('',#475,#476,#47,.T.);
#582=EDGE_CURVE('',#476,#476,#436,.T.);
#583=EDGE_CURVE('',#477,#477,#437,.T.);
#584=EDGE_CURVE('',#477,#478,#48,.T.);
#585=EDGE_CURVE('',#478,#478,#438,.T.);
#586=EDGE_CURVE('',#479,#479,#439,.T.);
#587=EDGE_CURVE('',#479,#480,#49,.T.);
#588=EDGE_CURVE('',#480,#480,#440,.T.);
#589=EDGE_CURVE('',#481,#481,#441,.T.);
#590=EDGE_CURVE('',#481,#482,#50,.T.);
#591=EDGE_CURVE('',#482,#482,#442,.T.);
#592=EDGE_CURVE('',#483,#484,#51,.T.);
#593=EDGE_CURVE('',#483,#485,#52,.T.);
#594=EDGE_CURVE('',#486,#485,#53,.T.);
#595=EDGE_CURVE('',#484,#486,#54,.T.);
#596=EDGE_CURVE('',#484,#487,#55,.T.);
#597=EDGE_CURVE('',#488,#486,#56,.T.);
#598=EDGE_CURVE('',#487,#488,#57,.T.);
#599=EDGE_CURVE('',#487,#489,#58,.T.);
#600=EDGE_CURVE('',#490,#488,#59,.T.);
#601=EDGE_CURVE('',#489,#490,#60,.T.);
#602=EDGE_CURVE('',#489,#483,#61,.T.);
#603=EDGE_CURVE('',#485,#490,#62,.T.);
#604=EDGE_CURVE('',#491,#491,#443,.T.);
#605=EDGE_CURVE('',#492,#492,#444,.T.);
#606=EDGE_CURVE('',#493,#493,#445,.T.);
#607=EDGE_CURVE('',#494,#494,#446,.T.);
#608=EDGE_CURVE('',#495,#496,#63,.T.);
#609=EDGE_CURVE('',#497,#495,#64,.T.);
#610=EDGE_CURVE('',#498,#497,#65,.T.);
#611=EDGE_CURVE('',#499,#498,#66,.T.);
#612=EDGE_CURVE('',#500,#499,#67,.T.);
#613=EDGE_CURVE('',#501,#500,#68,.T.);
#614=EDGE_CURVE('',#502,#501,#69,.T.);
#615=EDGE_CURVE('',#503,#502,#70,.T.);
#616=EDGE_CURVE('',#504,#503,#71,.T.);
#617=EDGE_CURVE('',#496,#504,#72,.T.);
#618=EDGE_CURVE('',#505,#499,#73,.T.);
#619=EDGE_CURVE('',#506,#505,#74,.T.);
#620=EDGE_CURVE('',#506,#500,#75,.T.);
#621=EDGE_CURVE('',#507,#498,#76,.T.);
#622=EDGE_CURVE('',#505,#507,#77,.T.);
#623=EDGE_CURVE('',#497,#508,#78,.T.);
#624=EDGE_CURVE('',#508,#509,#79,.T.);
#625=EDGE_CURVE('',#509,#510,#80,.T.);
#626=EDGE_CURVE('',#510,#511,#81,.T.);
#627=EDGE_CURVE('',#512,#511,#82,.T.);
#628=EDGE_CURVE('',#513,#512,#83,.T.);
#629=EDGE_CURVE('',#513,#507,#84,.T.);
#630=EDGE_CURVE('',#495,#514,#85,.T.);
#631=EDGE_CURVE('',#515,#514,#86,.T.);
#632=EDGE_CURVE('',#516,#515,#87,.T.);
#633=EDGE_CURVE('',#508,#516,#88,.T.);
#634=EDGE_CURVE('',#496,#517,#89,.T.);
#635=EDGE_CURVE('',#517,#518,#90,.T.);
#636=EDGE_CURVE('',#519,#518,#91,.T.);
#637=EDGE_CURVE('',#514,#519,#92,.T.);
#638=EDGE_CURVE('',#520,#504,#93,.T.);
#639=EDGE_CURVE('',#521,#520,#94,.T.);
#640=EDGE_CURVE('',#521,#522,#95,.T.);
#641=EDGE_CURVE('',#522,#518,#96,.T.);
#642=EDGE_CURVE('',#523,#512,#97,.T.);
#643=EDGE_CURVE('',#524,#523,#98,.T.);
#644=EDGE_CURVE('',#513,#524,#99,.T.);
#645=EDGE_CURVE('',#502,#525,#100,.T.);
#646=EDGE_CURVE('',#525,#526,#101,.T.);
#647=EDGE_CURVE('',#526,#503,#102,.T.);
#648=EDGE_CURVE('',#522,#527,#103,.T.);
#649=EDGE_CURVE('',#528,#521,#104,.T.);
#650=EDGE_CURVE('',#527,#528,#105,.T.);
#651=EDGE_CURVE('',#511,#529,#106,.T.);
#652=EDGE_CURVE('',#529,#523,#107,.T.);
#653=EDGE_CURVE('',#515,#530,#108,.T.);
#654=EDGE_CURVE('',#530,#531,#109,.T.);
#655=EDGE_CURVE('',#516,#531,#110,.T.);
#656=EDGE_CURVE('',#531,#509,#111,.T.);
#657=EDGE_CURVE('',#510,#530,#112,.T.);
#658=EDGE_CURVE('',#524,#526,#113,.T.);
#659=EDGE_CURVE('',#525,#532,#114,.T.);
#660=EDGE_CURVE('',#532,#506,#115,.T.);
#661=EDGE_CURVE('',#533,#533,#447,.T.);
#662=EDGE_CURVE('',#532,#501,#116,.T.);
#663=EDGE_CURVE('',#528,#534,#117,.T.);
#664=EDGE_CURVE('',#534,#529,#118,.T.);
#665=EDGE_CURVE('',#527,#511,#119,.T.);
#666=EDGE_CURVE('',#520,#534,#120,.T.);
#667=EDGE_CURVE('',#535,#535,#448,.T.);
#668=EDGE_CURVE('',#536,#536,#449,.T.);
#669=EDGE_CURVE('',#537,#537,#450,.T.);
#670=EDGE_CURVE('',#538,#538,#451,.T.);
#671=EDGE_CURVE('',#539,#539,#452,.T.);
#672=EDGE_CURVE('',#493,#539,#121,.T.);
#673=EDGE_CURVE('',#492,#538,#122,.T.);
#674=EDGE_CURVE('',#491,#537,#123,.T.);
#675=EDGE_CURVE('',#494,#536,#124,.T.);
#676=EDGE_CURVE('',#533,#535,#125,.T.);
#677=EDGE_CURVE('',#540,#541,#126,.T.);
#678=EDGE_CURVE('',#542,#541,#127,.T.);
#679=EDGE_CURVE('',#543,#542,#128,.T.);
#680=EDGE_CURVE('',#540,#543,#129,.T.);
#681=EDGE_CURVE('',#544,#545,#130,.T.);
#682=EDGE_CURVE('',#541,#545,#131,.T.);
#683=EDGE_CURVE('',#544,#540,#132,.T.);
#684=EDGE_CURVE('',#546,#542,#133,.T.);
#685=EDGE_CURVE('',#547,#546,#134,.T.);
#686=EDGE_CURVE('',#543,#547,#135,.T.);
#687=EDGE_CURVE('',#545,#546,#136,.T.);
#688=EDGE_CURVE('',#547,#544,#137,.T.);
#689=EDGE_CURVE('',#548,#548,#453,.T.);
#690=EDGE_CURVE('',#549,#549,#454,.T.);
#691=EDGE_CURVE('',#548,#549,#138,.T.);
#692=ORIENTED_EDGE('',*,*,#550,.T.);
#693=ORIENTED_EDGE('',*,*,#551,.T.);
#694=ORIENTED_EDGE('',*,*,#552,.F.);
#695=ORIENTED_EDGE('',*,*,#553,.T.);
#696=ORIENTED_EDGE('',*,*,#551,.F.);
#697=ORIENTED_EDGE('',*,*,#553,.F.);
#698=ORIENTED_EDGE('',*,*,#554,.F.);
#699=ORIENTED_EDGE('',*,*,#555,.T.);
#700=ORIENTED_EDGE('',*,*,#550,.F.);
#701=ORIENTED_EDGE('',*,*,#555,.F.);
#702=ORIENTED_EDGE('',*,*,#554,.T.);
#703=ORIENTED_EDGE('',*,*,#552,.T.);
#704=ORIENTED_EDGE('',*,*,#556,.F.);
#705=ORIENTED_EDGE('',*,*,#557,.F.);
#706=ORIENTED_EDGE('',*,*,#558,.F.);
#707=ORIENTED_EDGE('',*,*,#559,.T.);
#708=ORIENTED_EDGE('',*,*,#560,.F.);
#709=ORIENTED_EDGE('',*,*,#559,.F.);
#710=ORIENTED_EDGE('',*,*,#561,.F.);
#711=ORIENTED_EDGE('',*,*,#562,.T.);
#712=ORIENTED_EDGE('',*,*,#563,.F.);
#713=ORIENTED_EDGE('',*,*,#562,.F.);
#714=ORIENTED_EDGE('',*,*,#564,.F.);
#715=ORIENTED_EDGE('',*,*,#565,.T.);
#716=ORIENTED_EDGE('',*,*,#566,.F.);
#717=ORIENTED_EDGE('',*,*,#565,.F.);
#718=ORIENTED_EDGE('',*,*,#567,.F.);
#719=ORIENTED_EDGE('',*,*,#557,.T.);
#720=ORIENTED_EDGE('',*,*,#568,.F.);
#721=ORIENTED_EDGE('',*,*,#569,.F.);
#722=ORIENTED_EDGE('',*,*,#570,.F.);
#723=ORIENTED_EDGE('',*,*,#571,.T.);
#724=ORIENTED_EDGE('',*,*,#572,.F.);
#725=ORIENTED_EDGE('',*,*,#571,.F.);
#726=ORIENTED_EDGE('',*,*,#573,.F.);
#727=ORIENTED_EDGE('',*,*,#574,.T.);
#728=ORIENTED_EDGE('',*,*,#575,.F.);
#729=ORIENTED_EDGE('',*,*,#574,.F.);
#730=ORIENTED_EDGE('',*,*,#576,.F.);
#731=ORIENTED_EDGE('',*,*,#577,.T.);
#732=ORIENTED_EDGE('',*,*,#578,.F.);
#733=ORIENTED_EDGE('',*,*,#577,.F.);
#734=ORIENTED_EDGE('',*,*,#579,.F.);
#735=ORIENTED_EDGE('',*,*,#569,.T.);
#736=ORIENTED_EDGE('',*,*,#580,.F.);
#737=ORIENTED_EDGE('',*,*,#581,.T.);
#738=ORIENTED_EDGE('',*,*,#582,.F.);
#739=ORIENTED_EDGE('',*,*,#581,.F.);
#740=ORIENTED_EDGE('',*,*,#583,.F.);
#741=ORIENTED_EDGE('',*,*,#584,.T.);
#742=ORIENTED_EDGE('',*,*,#585,.F.);
#743=ORIENTED_EDGE('',*,*,#584,.F.);
#744=ORIENTED_EDGE('',*,*,#586,.F.);
#745=ORIENTED_EDGE('',*,*,#587,.T.);
#746=ORIENTED_EDGE('',*,*,#588,.F.);
#747=ORIENTED_EDGE('',*,*,#587,.F.);
#748=ORIENTED_EDGE('',*,*,#589,.F.);
#749=ORIENTED_EDGE('',*,*,#590,.T.);
#750=ORIENTED_EDGE('',*,*,#591,.T.);
#751=ORIENTED_EDGE('',*,*,#590,.F.);
#752=ORIENTED_EDGE('',*,*,#592,.F.);
#753=ORIENTED_EDGE('',*,*,#593,.T.);
#754=ORIENTED_EDGE('',*,*,#594,.F.);
#755=ORIENTED_EDGE('',*,*,#595,.F.);
#756=ORIENTED_EDGE('',*,*,#596,.F.);
#757=ORIENTED_EDGE('',*,*,#595,.T.);
#758=ORIENTED_EDGE('',*,*,#597,.F.);
#759=ORIENTED_EDGE('',*,*,#598,.F.);
#760=ORIENTED_EDGE('',*,*,#599,.F.);
#761=ORIENTED_EDGE('',*,*,#598,.T.);
#762=ORIENTED_EDGE('',*,*,#600,.F.);
#763=ORIENTED_EDGE('',*,*,#601,.F.);
#764=ORIENTED_EDGE('',*,*,#602,.F.);
#765=ORIENTED_EDGE('',*,*,#601,.T.);
#766=ORIENTED_EDGE('',*,*,#603,.F.);
#767=ORIENTED_EDGE('',*,*,#593,.F.);
#768=ORIENTED_EDGE('',*,*,#603,.T.);
#769=ORIENTED_EDGE('',*,*,#600,.T.);
#770=ORIENTED_EDGE('',*,*,#597,.T.);
#771=ORIENTED_EDGE('',*,*,#594,.T.);
#772=ORIENTED_EDGE('',*,*,#564,.T.);
#773=ORIENTED_EDGE('',*,*,#561,.T.);
#774=ORIENTED_EDGE('',*,*,#558,.T.);
#775=ORIENTED_EDGE('',*,*,#567,.T.);
#776=ORIENTED_EDGE('',*,*,#576,.T.);
#777=ORIENTED_EDGE('',*,*,#573,.T.);
#778=ORIENTED_EDGE('',*,*,#570,.T.);
#779=ORIENTED_EDGE('',*,*,#579,.T.);
#780=ORIENTED_EDGE('',*,*,#582,.T.);
#781=ORIENTED_EDGE('',*,*,#585,.T.);
#782=ORIENTED_EDGE('',*,*,#588,.T.);
#783=ORIENTED_EDGE('',*,*,#589,.T.);
#784=ORIENTED_EDGE('',*,*,#602,.T.);
#785=ORIENTED_EDGE('',*,*,#592,.T.);
#786=ORIENTED_EDGE('',*,*,#596,.T.);
#787=ORIENTED_EDGE('',*,*,#599,.T.);
#788=ORIENTED_EDGE('',*,*,#563,.T.);
#789=ORIENTED_EDGE('',*,*,#566,.T.);
#790=ORIENTED_EDGE('',*,*,#556,.T.);
#791=ORIENTED_EDGE('',*,*,#560,.T.);
#792=ORIENTED_EDGE('',*,*,#575,.T.);
#793=ORIENTED_EDGE('',*,*,#578,.T.);
#794=ORIENTED_EDGE('',*,*,#568,.T.);
#795=ORIENTED_EDGE('',*,*,#572,.T.);
#796=ORIENTED_EDGE('',*,*,#580,.T.);
#797=ORIENTED_EDGE('',*,*,#583,.T.);
#798=ORIENTED_EDGE('',*,*,#586,.T.);
#799=ORIENTED_EDGE('',*,*,#591,.F.);
#800=ORIENTED_EDGE('',*,*,#604,.T.);
#801=ORIENTED_EDGE('',*,*,#605,.T.);
#802=ORIENTED_EDGE('',*,*,#606,.T.);
#803=ORIENTED_EDGE('',*,*,#607,.T.);
#804=ORIENTED_EDGE('',*,*,#608,.F.);
#805=ORIENTED_EDGE('',*,*,#609,.F.);
#806=ORIENTED_EDGE('',*,*,#610,.F.);
#807=ORIENTED_EDGE('',*,*,#611,.F.);
#808=ORIENTED_EDGE('',*,*,#612,.F.);
#809=ORIENTED_EDGE('',*,*,#613,.F.);
#810=ORIENTED_EDGE('',*,*,#614,.F.);
#811=ORIENTED_EDGE('',*,*,#615,.F.);
#812=ORIENTED_EDGE('',*,*,#616,.F.);
#813=ORIENTED_EDGE('',*,*,#617,.F.);
#814=ORIENTED_EDGE('',*,*,#612,.T.);
#815=ORIENTED_EDGE('',*,*,#618,.F.);
#816=ORIENTED_EDGE('',*,*,#619,.F.);
#817=ORIENTED_EDGE('',*,*,#620,.T.);
#818=ORIENTED_EDGE('',*,*,#611,.T.);
#819=ORIENTED_EDGE('',*,*,#621,.F.);
#820=ORIENTED_EDGE('',*,*,#622,.F.);
#821=ORIENTED_EDGE('',*,*,#618,.T.);
#822=ORIENTED_EDGE('',*,*,#610,.T.);
#823=ORIENTED_EDGE('',*,*,#623,.T.);
#824=ORIENTED_EDGE('',*,*,#624,.T.);
#825=ORIENTED_EDGE('',*,*,#625,.T.);
#826=ORIENTED_EDGE('',*,*,#626,.T.);
#827=ORIENTED_EDGE('',*,*,#627,.F.);
#828=ORIENTED_EDGE('',*,*,#628,.F.);
#829=ORIENTED_EDGE('',*,*,#629,.T.);
#830=ORIENTED_EDGE('',*,*,#621,.T.);
#831=ORIENTED_EDGE('',*,*,#609,.T.);
#832=ORIENTED_EDGE('',*,*,#630,.T.);
#833=ORIENTED_EDGE('',*,*,#631,.F.);
#834=ORIENTED_EDGE('',*,*,#632,.F.);
#835=ORIENTED_EDGE('',*,*,#633,.F.);
#836=ORIENTED_EDGE('',*,*,#623,.F.);
#837=ORIENTED_EDGE('',*,*,#608,.T.);
#838=ORIENTED_EDGE('',*,*,#634,.T.);
#839=ORIENTED_EDGE('',*,*,#635,.T.);
#840=ORIENTED_EDGE('',*,*,#636,.F.);
#841=ORIENTED_EDGE('',*,*,#637,.F.);
#842=ORIENTED_EDGE('',*,*,#630,.F.);
#843=ORIENTED_EDGE('',*,*,#617,.T.);
#844=ORIENTED_EDGE('',*,*,#638,.F.);
#845=ORIENTED_EDGE('',*,*,#639,.F.);
#846=ORIENTED_EDGE('',*,*,#640,.T.);
#847=ORIENTED_EDGE('',*,*,#641,.T.);
#848=ORIENTED_EDGE('',*,*,#635,.F.);
#849=ORIENTED_EDGE('',*,*,#634,.F.);
#850=ORIENTED_EDGE('',*,*,#628,.T.);
#851=ORIENTED_EDGE('',*,*,#642,.F.);
#852=ORIENTED_EDGE('',*,*,#643,.F.);
#853=ORIENTED_EDGE('',*,*,#644,.F.);
#854=ORIENTED_EDGE('',*,*,#615,.T.);
#855=ORIENTED_EDGE('',*,*,#645,.T.);
#856=ORIENTED_EDGE('',*,*,#646,.T.);
#857=ORIENTED_EDGE('',*,*,#647,.T.);
#858=ORIENTED_EDGE('',*,*,#648,.F.);
#859=ORIENTED_EDGE('',*,*,#640,.F.);
#860=ORIENTED_EDGE('',*,*,#649,.F.);
#861=ORIENTED_EDGE('',*,*,#650,.F.);
#862=ORIENTED_EDGE('',*,*,#627,.T.);
#863=ORIENTED_EDGE('',*,*,#651,.T.);
#864=ORIENTED_EDGE('',*,*,#652,.T.);
#865=ORIENTED_EDGE('',*,*,#642,.T.);
#866=ORIENTED_EDGE('',*,*,#632,.T.);
#867=ORIENTED_EDGE('',*,*,#653,.T.);
#868=ORIENTED_EDGE('',*,*,#654,.T.);
#869=ORIENTED_EDGE('',*,*,#655,.F.);
#870=ORIENTED_EDGE('',*,*,#633,.T.);
#871=ORIENTED_EDGE('',*,*,#655,.T.);
#872=ORIENTED_EDGE('',*,*,#656,.T.);
#873=ORIENTED_EDGE('',*,*,#624,.F.);
#874=ORIENTED_EDGE('',*,*,#657,.F.);
#875=ORIENTED_EDGE('',*,*,#625,.F.);
#876=ORIENTED_EDGE('',*,*,#656,.F.);
#877=ORIENTED_EDGE('',*,*,#654,.F.);
#878=ORIENTED_EDGE('',*,*,#622,.T.);
#879=ORIENTED_EDGE('',*,*,#629,.F.);
#880=ORIENTED_EDGE('',*,*,#644,.T.);
#881=ORIENTED_EDGE('',*,*,#658,.T.);
#882=ORIENTED_EDGE('',*,*,#646,.F.);
#883=ORIENTED_EDGE('',*,*,#659,.T.);
#884=ORIENTED_EDGE('',*,*,#660,.T.);
#885=ORIENTED_EDGE('',*,*,#619,.T.);
#886=ORIENTED_EDGE('',*,*,#661,.T.);
#887=ORIENTED_EDGE('',*,*,#613,.T.);
#888=ORIENTED_EDGE('',*,*,#620,.F.);
#889=ORIENTED_EDGE('',*,*,#660,.F.);
#890=ORIENTED_EDGE('',*,*,#662,.T.);
#891=ORIENTED_EDGE('',*,*,#650,.T.);
#892=ORIENTED_EDGE('',*,*,#663,.T.);
#893=ORIENTED_EDGE('',*,*,#664,.T.);
#894=ORIENTED_EDGE('',*,*,#651,.F.);
#895=ORIENTED_EDGE('',*,*,#665,.F.);
#896=ORIENTED_EDGE('',*,*,#649,.T.);
#897=ORIENTED_EDGE('',*,*,#639,.T.);
#898=ORIENTED_EDGE('',*,*,#666,.T.);
#899=ORIENTED_EDGE('',*,*,#663,.F.);
#900=ORIENTED_EDGE('',*,*,#616,.T.);
#901=ORIENTED_EDGE('',*,*,#647,.F.);
#902=ORIENTED_EDGE('',*,*,#658,.F.);
#903=ORIENTED_EDGE('',*,*,#643,.T.);
#904=ORIENTED_EDGE('',*,*,#652,.F.);
#905=ORIENTED_EDGE('',*,*,#664,.F.);
#906=ORIENTED_EDGE('',*,*,#666,.F.);
#907=ORIENTED_EDGE('',*,*,#638,.T.);
#908=ORIENTED_EDGE('',*,*,#614,.T.);
#909=ORIENTED_EDGE('',*,*,#662,.F.);
#910=ORIENTED_EDGE('',*,*,#659,.F.);
#911=ORIENTED_EDGE('',*,*,#645,.F.);
#912=ORIENTED_EDGE('',*,*,#631,.T.);
#913=ORIENTED_EDGE('',*,*,#637,.T.);
#914=ORIENTED_EDGE('',*,*,#636,.T.);
#915=ORIENTED_EDGE('',*,*,#641,.F.);
#916=ORIENTED_EDGE('',*,*,#648,.T.);
#917=ORIENTED_EDGE('',*,*,#665,.T.);
#918=ORIENTED_EDGE('',*,*,#626,.F.);
#919=ORIENTED_EDGE('',*,*,#657,.T.);
#920=ORIENTED_EDGE('',*,*,#653,.F.);
#921=ORIENTED_EDGE('',*,*,#667,.T.);
#922=ORIENTED_EDGE('',*,*,#668,.T.);
#923=ORIENTED_EDGE('',*,*,#669,.T.);
#924=ORIENTED_EDGE('',*,*,#670,.T.);
#925=ORIENTED_EDGE('',*,*,#671,.T.);
#926=ORIENTED_EDGE('',*,*,#606,.F.);
#927=ORIENTED_EDGE('',*,*,#672,.T.);
#928=ORIENTED_EDGE('',*,*,#671,.F.);
#929=ORIENTED_EDGE('',*,*,#672,.F.);
#930=ORIENTED_EDGE('',*,*,#605,.F.);
#931=ORIENTED_EDGE('',*,*,#673,.T.);
#932=ORIENTED_EDGE('',*,*,#670,.F.);
#933=ORIENTED_EDGE('',*,*,#673,.F.);
#934=ORIENTED_EDGE('',*,*,#604,.F.);
#935=ORIENTED_EDGE('',*,*,#674,.T.);
#936=ORIENTED_EDGE('',*,*,#669,.F.);
#937=ORIENTED_EDGE('',*,*,#674,.F.);
#938=ORIENTED_EDGE('',*,*,#607,.F.);
#939=ORIENTED_EDGE('',*,*,#675,.T.);
#940=ORIENTED_EDGE('',*,*,#668,.F.);
#941=ORIENTED_EDGE('',*,*,#675,.F.);
#942=ORIENTED_EDGE('',*,*,#661,.F.);
#943=ORIENTED_EDGE('',*,*,#676,.T.);
#944=ORIENTED_EDGE('',*,*,#667,.F.);
#945=ORIENTED_EDGE('',*,*,#676,.F.);
#946=ORIENTED_EDGE('',*,*,#677,.T.);
#947=ORIENTED_EDGE('',*,*,#678,.F.);
#948=ORIENTED_EDGE('',*,*,#679,.F.);
#949=ORIENTED_EDGE('',*,*,#680,.F.);
#950=ORIENTED_EDGE('',*,*,#681,.T.);
#951=ORIENTED_EDGE('',*,*,#682,.F.);
#952=ORIENTED_EDGE('',*,*,#677,.F.);
#953=ORIENTED_EDGE('',*,*,#683,.F.);
#954=ORIENTED_EDGE('',*,*,#679,.T.);
#955=ORIENTED_EDGE('',*,*,#684,.F.);
#956=ORIENTED_EDGE('',*,*,#685,.F.);
#957=ORIENTED_EDGE('',*,*,#686,.F.);
#958=ORIENTED_EDGE('',*,*,#685,.T.);
#959=ORIENTED_EDGE('',*,*,#687,.F.);
#960=ORIENTED_EDGE('',*,*,#681,.F.);
#961=ORIENTED_EDGE('',*,*,#688,.F.);
#962=ORIENTED_EDGE('',*,*,#689,.T.);
#963=ORIENTED_EDGE('',*,*,#686,.T.);
#964=ORIENTED_EDGE('',*,*,#688,.T.);
#965=ORIENTED_EDGE('',*,*,#683,.T.);
#966=ORIENTED_EDGE('',*,*,#680,.T.);
#967=ORIENTED_EDGE('',*,*,#690,.T.);
#968=ORIENTED_EDGE('',*,*,#684,.T.);
#969=ORIENTED_EDGE('',*,*,#678,.T.);
#970=ORIENTED_EDGE('',*,*,#682,.T.);
#971=ORIENTED_EDGE('',*,*,#687,.T.);
#972=ORIENTED_EDGE('',*,*,#689,.F.);
#973=ORIENTED_EDGE('',*,*,#691,.T.);
#974=ORIENTED_EDGE('',*,*,#690,.F.);
#975=ORIENTED_EDGE('',*,*,#691,.F.);
#976=PLANE('',#1099);
#977=PLANE('',#1106);
#978=PLANE('',#1107);
#979=PLANE('',#1108);
#980=PLANE('',#1109);
#981=PLANE('',#1110);
#982=PLANE('',#1111);
#983=PLANE('',#1112);
#984=PLANE('',#1113);
#985=PLANE('',#1114);
#986=PLANE('',#1127);
#987=PLANE('',#1128);
#988=PLANE('',#1129);
#989=PLANE('',#1130);
#990=PLANE('',#1131);
#991=PLANE('',#1132);
#992=PLANE('',#1133);
#993=PLANE('',#1135);
#994=PLANE('',#1137);
#995=PLANE('',#1139);
#996=PLANE('',#1141);
#997=PLANE('',#1142);
#998=PLANE('',#1143);
#999=PLANE('',#1144);
#1000=PLANE('',#1145);
#1001=PLANE('',#1146);
#1002=PLANE('',#1147);
#1003=PLANE('',#1148);
#1004=PLANE('',#1149);
#1005=PLANE('',#1150);
#1006=PLANE('',#1151);
#1007=PLANE('',#1152);
#1008=PLANE('',#1153);
#1009=PLANE('',#1154);
#1010=PLANE('',#1155);
#1011=PLANE('',#1157);
#1012=PLANE('',#1158);
#1013=PLANE('',#1159);
#1014=PLANE('',#1160);
#1015=PLANE('',#1161);
#1016=PLANE('',#1162);
#1017=PLANE('',#1173);
#1018=PLANE('',#1174);
#1019=PLANE('',#1175);
#1020=PLANE('',#1176);
#1021=PLANE('',#1177);
#1022=PLANE('',#1179);
#1023=ADVANCED_FACE('',(#291,#269),#976,.F.);
#1024=ADVANCED_FACE('',(#292),#257,.F.);
#1025=ADVANCED_FACE('',(#293),#258,.T.);
#1026=ADVANCED_FACE('',(#294,#270),#977,.T.);
#1027=ADVANCED_FACE('',(#295),#978,.F.);
#1028=ADVANCED_FACE('',(#296),#979,.F.);
#1029=ADVANCED_FACE('',(#297),#980,.F.);
#1030=ADVANCED_FACE('',(#298),#981,.F.);
#1031=ADVANCED_FACE('',(#299),#982,.F.);
#1032=ADVANCED_FACE('',(#300),#983,.F.);
#1033=ADVANCED_FACE('',(#301),#984,.F.);
#1034=ADVANCED_FACE('',(#302),#985,.F.);
#1035=ADVANCED_FACE('',(#303),#259,.F.);
#1036=ADVANCED_FACE('',(#304),#260,.F.);
#1037=ADVANCED_FACE('',(#305),#261,.F.);
#1038=ADVANCED_FACE('',(#306),#262,.F.);
#1039=ADVANCED_FACE('',(#307),#986,.T.);
#1040=ADVANCED_FACE('',(#308),#987,.T.);
#1041=ADVANCED_FACE('',(#309),#988,.T.);
#1042=ADVANCED_FACE('',(#310),#989,.T.);
#1043=ADVANCED_FACE('',(#311,#271,#272,#273,#274,#275,#276),#990,.T.);
#1044=ADVANCED_FACE('',(#312,#277,#278,#279,#280,#281,#282),#991,.F.);
#1045=ADVANCED_FACE('',(#313),#992,.T.);
#1046=ADVANCED_FACE('',(#314),#993,.T.);
#1047=ADVANCED_FACE('',(#315),#994,.T.);
#1048=ADVANCED_FACE('',(#316),#995,.T.);
#1049=ADVANCED_FACE('',(#317),#996,.F.);
#1050=ADVANCED_FACE('',(#318),#997,.T.);
#1051=ADVANCED_FACE('',(#319),#998,.T.);
#1052=ADVANCED_FACE('',(#320),#999,.T.);
#1053=ADVANCED_FACE('',(#321),#1000,.F.);
#1054=ADVANCED_FACE('',(#322),#1001,.F.);
#1055=ADVANCED_FACE('',(#323),#1002,.F.);
#1056=ADVANCED_FACE('',(#324),#1003,.F.);
#1057=ADVANCED_FACE('',(#325),#1004,.T.);
#1058=ADVANCED_FACE('',(#326),#1005,.F.);
#1059=ADVANCED_FACE('',(#327),#1006,.F.);
#1060=ADVANCED_FACE('',(#328),#1007,.F.);
#1061=ADVANCED_FACE('',(#329),#1008,.F.);
#1062=ADVANCED_FACE('',(#330),#1009,.F.);
#1063=ADVANCED_FACE('',(#331,#283),#1010,.F.);
#1064=ADVANCED_FACE('',(#332),#1011,.T.);
#1065=ADVANCED_FACE('',(#333),#1012,.F.);
#1066=ADVANCED_FACE('',(#334),#1013,.F.);
#1067=ADVANCED_FACE('',(#335),#1014,.F.);
#1068=ADVANCED_FACE('',(#336),#1015,.T.);
#1069=ADVANCED_FACE('',(#337,#284,#285,#286,#287,#288),#1016,.T.);
#1070=ADVANCED_FACE('',(#338),#263,.T.);
#1071=ADVANCED_FACE('',(#339),#264,.T.);
#1072=ADVANCED_FACE('',(#340),#265,.T.);
#1073=ADVANCED_FACE('',(#341),#266,.T.);
#1074=ADVANCED_FACE('',(#342),#267,.F.);
#1075=ADVANCED_FACE('',(#343),#1017,.F.);
#1076=ADVANCED_FACE('',(#344),#1018,.F.);
#1077=ADVANCED_FACE('',(#345),#1019,.F.);
#1078=ADVANCED_FACE('',(#346),#1020,.F.);
#1079=ADVANCED_FACE('',(#347,#289),#1021,.F.);
#1080=ADVANCED_FACE('',(#348,#290),#1022,.T.);
#1081=ADVANCED_FACE('',(#349),#268,.T.);
#1082=CLOSED_SHELL('',(#1023,#1024,#1025,#1026));
#1083=CLOSED_SHELL('',(#1027,#1028,#1029,#1030,#1031,#1032,#1033,#1034,
#1035,#1036,#1037,#1038,#1039,#1040,#1041,#1042,#1043,#1044));
#1084=CLOSED_SHELL('',(#1045,#1046,#1047,#1048,#1049,#1050,#1051,#1052,
#1053,#1054,#1055,#1056,#1057,#1058,#1059,#1060,#1061,#1062,#1063,#1064,
#1065,#1066,#1067,#1068,#1069,#1070,#1071,#1072,#1073,#1074));
#1085=CLOSED_SHELL('',(#1075,#1076,#1077,#1078,#1079,#1080,#1081));
#1086=DERIVED_UNIT_ELEMENT(#1088,1.);
#1087=DERIVED_UNIT_ELEMENT(#1770,-3.);
#1088=(
MASS_UNIT()
NAMED_UNIT(*)
SI_UNIT(.KILO.,.GRAM.)
);
#1089=DERIVED_UNIT((#1086,#1087));
#1090=MEASURE_REPRESENTATION_ITEM('density measure',
POSITIVE_RATIO_MEASURE(7850.),#1089);
#1091=PROPERTY_DEFINITION_REPRESENTATION(#1096,#1093);
#1092=PROPERTY_DEFINITION_REPRESENTATION(#1097,#1094);
#1093=REPRESENTATION('material name',(#1095),#1767);
#1094=REPRESENTATION('density',(#1090),#1767);
#1095=DESCRIPTIVE_REPRESENTATION_ITEM('Stal','Stal');
#1096=PROPERTY_DEFINITION('material property','material name',#1777);
#1097=PROPERTY_DEFINITION('material property','density of part',#1777);
#1098=AXIS2_PLACEMENT_3D('',#1468,#1182,#1183);
#1099=AXIS2_PLACEMENT_3D('',#1469,#1184,#1185);
#1100=AXIS2_PLACEMENT_3D('',#1471,#1186,#1187);
#1101=AXIS2_PLACEMENT_3D('',#1473,#1188,#1189);
#1102=AXIS2_PLACEMENT_3D('',#1474,#1190,#1191);
#1103=AXIS2_PLACEMENT_3D('',#1476,#1192,#1193);
#1104=AXIS2_PLACEMENT_3D('',#1478,#1195,#1196);
#1105=AXIS2_PLACEMENT_3D('',#1480,#1197,#1198);
#1106=AXIS2_PLACEMENT_3D('',#1482,#1200,#1201);
#1107=AXIS2_PLACEMENT_3D('',#1483,#1202,#1203);
#1108=AXIS2_PLACEMENT_3D('',#1492,#1208,#1209);
#1109=AXIS2_PLACEMENT_3D('',#1498,#1213,#1214);
#1110=AXIS2_PLACEMENT_3D('',#1504,#1218,#1219);
#1111=AXIS2_PLACEMENT_3D('',#1507,#1222,#1223);
#1112=AXIS2_PLACEMENT_3D('',#1516,#1228,#1229);
#1113=AXIS2_PLACEMENT_3D('',#1522,#1233,#1234);
#1114=AXIS2_PLACEMENT_3D('',#1528,#1238,#1239);
#1115=AXIS2_PLACEMENT_3D('',#1531,#1242,#1243);
#1116=AXIS2_PLACEMENT_3D('',#1533,#1244,#1245);
#1117=AXIS2_PLACEMENT_3D('',#1536,#1247,#1248);
#1118=AXIS2_PLACEMENT_3D('',#1537,#1249,#1250);
#1119=AXIS2_PLACEMENT_3D('',#1539,#1251,#1252);
#1120=AXIS2_PLACEMENT_3D('',#1542,#1254,#1255);
#1121=AXIS2_PLACEMENT_3D('',#1543,#1256,#1257);
#1122=AXIS2_PLACEMENT_3D('',#1545,#1258,#1259);
#1123=AXIS2_PLACEMENT_3D('',#1548,#1261,#1262);
#1124=AXIS2_PLACEMENT_3D('',#1549,#1263,#1264);
#1125=AXIS2_PLACEMENT_3D('',#1551,#1265,#1266);
#1126=AXIS2_PLACEMENT_3D('',#1554,#1268,#1269);
#1127=AXIS2_PLACEMENT_3D('',#1555,#1270,#1271);
#1128=AXIS2_PLACEMENT_3D('',#1564,#1276,#1277);
#1129=AXIS2_PLACEMENT_3D('',#1570,#1281,#1282);
#1130=AXIS2_PLACEMENT_3D('',#1576,#1286,#1287);
#1131=AXIS2_PLACEMENT_3D('',#1579,#1290,#1291);
#1132=AXIS2_PLACEMENT_3D('',#1580,#1292,#1293);
#1133=AXIS2_PLACEMENT_3D('',#1581,#1294,#1295);
#1134=AXIS2_PLACEMENT_3D('',#1583,#1296,#1297);
#1135=AXIS2_PLACEMENT_3D('',#1584,#1298,#1299);
#1136=AXIS2_PLACEMENT_3D('',#1586,#1300,#1301);
#1137=AXIS2_PLACEMENT_3D('',#1587,#1302,#1303);
#1138=AXIS2_PLACEMENT_3D('',#1589,#1304,#1305);
#1139=AXIS2_PLACEMENT_3D('',#1590,#1306,#1307);
#1140=AXIS2_PLACEMENT_3D('',#1592,#1308,#1309);
#1141=AXIS2_PLACEMENT_3D('',#1593,#1310,#1311);
#1142=AXIS2_PLACEMENT_3D('',#1614,#1322,#1323);
#1143=AXIS2_PLACEMENT_3D('',#1620,#1327,#1328);
#1144=AXIS2_PLACEMENT_3D('',#1624,#1331,#1332);
#1145=AXIS2_PLACEMENT_3D('',#1638,#1340,#1341);
#1146=AXIS2_PLACEMENT_3D('',#1646,#1346,#1347);
#1147=AXIS2_PLACEMENT_3D('',#1654,#1352,#1353);
#1148=AXIS2_PLACEMENT_3D('',#1662,#1358,#1359);
#1149=AXIS2_PLACEMENT_3D('',#1668,#1363,#1364);
#1150=AXIS2_PLACEMENT_3D('',#1674,#1368,#1369);
#1151=AXIS2_PLACEMENT_3D('',#1680,#1373,#1374);
#1152=AXIS2_PLACEMENT_3D('',#1684,#1377,#1378);
#1153=AXIS2_PLACEMENT_3D('',#1690,#1382,#1383);
#1154=AXIS2_PLACEMENT_3D('',#1692,#1385,#1386);
#1155=AXIS2_PLACEMENT_3D('',#1694,#1388,#1389);
#1156=AXIS2_PLACEMENT_3D('',#1700,#1393,#1394);
#1157=AXIS2_PLACEMENT_3D('',#1701,#1395,#1396);
#1158=AXIS2_PLACEMENT_3D('',#1703,#1398,#1399);
#1159=AXIS2_PLACEMENT_3D('',#1708,#1403,#1404);
#1160=AXIS2_PLACEMENT_3D('',#1710,#1406,#1407);
#1161=AXIS2_PLACEMENT_3D('',#1711,#1408,#1409);
#1162=AXIS2_PLACEMENT_3D('',#1712,#1410,#1411);
#1163=AXIS2_PLACEMENT_3D('',#1714,#1412,#1413);
#1164=AXIS2_PLACEMENT_3D('',#1716,#1414,#1415);
#1165=AXIS2_PLACEMENT_3D('',#1718,#1416,#1417);
#1166=AXIS2_PLACEMENT_3D('',#1720,#1418,#1419);
#1167=AXIS2_PLACEMENT_3D('',#1722,#1420,#1421);
#1168=AXIS2_PLACEMENT_3D('',#1723,#1422,#1423);
#1169=AXIS2_PLACEMENT_3D('',#1725,#1425,#1426);
#1170=AXIS2_PLACEMENT_3D('',#1727,#1428,#1429);
#1171=AXIS2_PLACEMENT_3D('',#1729,#1431,#1432);
#1172=AXIS2_PLACEMENT_3D('',#1731,#1434,#1435);
#1173=AXIS2_PLACEMENT_3D('',#1733,#1437,#1438);
#1174=AXIS2_PLACEMENT_3D('',#1742,#1443,#1444);
#1175=AXIS2_PLACEMENT_3D('',#1748,#1448,#1449);
#1176=AXIS2_PLACEMENT_3D('',#1754,#1453,#1454);
#1177=AXIS2_PLACEMENT_3D('',#1757,#1457,#1458);
#1178=AXIS2_PLACEMENT_3D('',#1759,#1459,#1460);
#1179=AXIS2_PLACEMENT_3D('',#1760,#1461,#1462);
#1180=AXIS2_PLACEMENT_3D('',#1762,#1463,#1464);
#1181=AXIS2_PLACEMENT_3D('',#1763,#1465,#1466);
#1182=DIRECTION('axis',(0.,0.,1.));
#1183=DIRECTION('refdir',(1.,0.,0.));
#1184=DIRECTION('center_axis',(0.,-1.,0.));
#1185=DIRECTION('ref_axis',(1.,0.,0.));
#1186=DIRECTION('center_axis',(0.,1.,0.));
#1187=DIRECTION('ref_axis',(1.,0.,0.));
#1188=DIRECTION('center_axis',(0.,-1.,0.));
#1189=DIRECTION('ref_axis',(1.,0.,0.));
#1190=DIRECTION('center_axis',(0.,-1.,0.));
#1191=DIRECTION('ref_axis',(1.,0.,0.));
#1192=DIRECTION('center_axis',(0.,1.,0.));
#1193=DIRECTION('ref_axis',(1.,0.,0.));
#1194=DIRECTION('',(0.,1.,0.));
#1195=DIRECTION('center_axis',(0.,-1.,0.));
#1196=DIRECTION('ref_axis',(1.,0.,0.));
#1197=DIRECTION('center_axis',(0.,-1.,0.));
#1198=DIRECTION('ref_axis',(1.,0.,0.));
#1199=DIRECTION('',(0.,1.,0.));
#1200=DIRECTION('center_axis',(0.,-1.,0.));
#1201=DIRECTION('ref_axis',(1.,0.,0.));
#1202=DIRECTION('center_axis',(1.,0.,0.));
#1203=DIRECTION('ref_axis',(0.,0.,1.));
#1204=DIRECTION('',(0.,0.,-1.));
#1205=DIRECTION('',(0.,-1.,0.));
#1206=DIRECTION('',(0.,0.,1.));
#1207=DIRECTION('',(0.,-1.,0.));
#1208=DIRECTION('center_axis',(0.,0.,-1.));
#1209=DIRECTION('ref_axis',(1.,0.,0.));
#1210=DIRECTION('',(-1.,0.,0.));
#1211=DIRECTION('',(1.,0.,0.));
#1212=DIRECTION('',(0.,-1.,0.));
#1213=DIRECTION('center_axis',(-1.,0.,0.));
#1214=DIRECTION('ref_axis',(0.,0.,-1.));
#1215=DIRECTION('',(0.,0.,1.));
#1216=DIRECTION('',(0.,0.,-1.));
#1217=DIRECTION('',(0.,-1.,0.));
#1218=DIRECTION('center_axis',(0.,0.,1.));
#1219=DIRECTION('ref_axis',(-1.,0.,0.));
#1220=DIRECTION('',(1.,0.,0.));
#1221=DIRECTION('',(-1.,0.,0.));
#1222=DIRECTION('center_axis',(1.,0.,0.));
#1223=DIRECTION('ref_axis',(0.,0.,1.));
#1224=DIRECTION('',(0.,0.,-1.));
#1225=DIRECTION('',(0.,-1.,0.));
#1226=DIRECTION('',(0.,0.,1.));
#1227=DIRECTION('',(0.,-1.,0.));
#1228=DIRECTION('center_axis',(0.,0.,-1.));
#1229=DIRECTION('ref_axis',(1.,0.,0.));
#1230=DIRECTION('',(-1.,0.,0.));
#1231=DIRECTION('',(1.,0.,0.));
#1232=DIRECTION('',(0.,-1.,0.));
#1233=DIRECTION('center_axis',(-1.,0.,0.));
#1234=DIRECTION('ref_axis',(0.,0.,-1.));
#1235=DIRECTION('',(0.,0.,1.));
#1236=DIRECTION('',(0.,0.,-1.));
#1237=DIRECTION('',(0.,-1.,0.));
#1238=DIRECTION('center_axis',(0.,0.,1.));
#1239=DIRECTION('ref_axis',(-1.,0.,0.));
#1240=DIRECTION('',(1.,0.,0.));
#1241=DIRECTION('',(-1.,0.,0.));
#1242=DIRECTION('center_axis',(0.,1.,0.));
#1243=DIRECTION('ref_axis',(1.,0.,0.));
#1244=DIRECTION('center_axis',(0.,1.,0.));
#1245=DIRECTION('ref_axis',(1.,0.,0.));
#1246=DIRECTION('',(0.,1.,0.));
#1247=DIRECTION('center_axis',(0.,-1.,0.));
#1248=DIRECTION('ref_axis',(1.,0.,0.));
#1249=DIRECTION('center_axis',(0.,1.,0.));
#1250=DIRECTION('ref_axis',(1.,0.,0.));
#1251=DIRECTION('center_axis',(0.,1.,0.));
#1252=DIRECTION('ref_axis',(1.,0.,0.));
#1253=DIRECTION('',(0.,1.,0.));
#1254=DIRECTION('center_axis',(0.,-1.,0.));
#1255=DIRECTION('ref_axis',(1.,0.,0.));
#1256=DIRECTION('center_axis',(0.,1.,0.));
#1257=DIRECTION('ref_axis',(1.,0.,0.));
#1258=DIRECTION('center_axis',(0.,1.,0.));
#1259=DIRECTION('ref_axis',(1.,0.,0.));
#1260=DIRECTION('',(0.,1.,0.));
#1261=DIRECTION('center_axis',(0.,-1.,0.));
#1262=DIRECTION('ref_axis',(1.,0.,0.));
#1263=DIRECTION('center_axis',(0.,1.,0.));
#1264=DIRECTION('ref_axis',(1.,0.,0.));
#1265=DIRECTION('center_axis',(0.,-1.,0.));
#1266=DIRECTION('ref_axis',(1.,0.,0.));
#1267=DIRECTION('',(0.,-1.,0.));
#1268=DIRECTION('center_axis',(0.,-1.,0.));
#1269=DIRECTION('ref_axis',(1.,0.,0.));
#1270=DIRECTION('center_axis',(1.,0.,0.));
#1271=DIRECTION('ref_axis',(0.,0.,-1.));
#1272=DIRECTION('',(0.,0.,1.));
#1273=DIRECTION('',(0.,1.,0.));
#1274=DIRECTION('',(0.,0.,-1.));
#1275=DIRECTION('',(0.,1.,0.));
#1276=DIRECTION('center_axis',(0.,0.,1.));
#1277=DIRECTION('ref_axis',(1.,0.,0.));
#1278=DIRECTION('',(-1.,0.,0.));
#1279=DIRECTION('',(1.,0.,0.));
#1280=DIRECTION('',(0.,1.,0.));
#1281=DIRECTION('center_axis',(-1.,0.,0.));
#1282=DIRECTION('ref_axis',(0.,0.,1.));
#1283=DIRECTION('',(0.,0.,-1.));
#1284=DIRECTION('',(0.,0.,1.));
#1285=DIRECTION('',(0.,1.,0.));
#1286=DIRECTION('center_axis',(0.,0.,-1.));
#1287=DIRECTION('ref_axis',(-1.,0.,0.));
#1288=DIRECTION('',(1.,0.,0.));
#1289=DIRECTION('',(-1.,0.,0.));
#1290=DIRECTION('center_axis',(0.,1.,0.));
#1291=DIRECTION('ref_axis',(1.,0.,0.));
#1292=DIRECTION('center_axis',(0.,1.,0.));
#1293=DIRECTION('ref_axis',(1.,0.,0.));
#1294=DIRECTION('center_axis',(0.,1.,0.));
#1295=DIRECTION('ref_axis',(-1.,0.,0.));
#1296=DIRECTION('center_axis',(0.,1.,0.));
#1297=DIRECTION('ref_axis',(-1.,0.,0.));
#1298=DIRECTION('center_axis',(0.,1.,0.));
#1299=DIRECTION('ref_axis',(-1.,0.,0.));
#1300=DIRECTION('center_axis',(0.,1.,0.));
#1301=DIRECTION('ref_axis',(-1.,0.,0.));
#1302=DIRECTION('center_axis',(0.,1.,0.));
#1303=DIRECTION('ref_axis',(-1.,0.,0.));
#1304=DIRECTION('center_axis',(0.,1.,0.));
#1305=DIRECTION('ref_axis',(-1.,0.,0.));
#1306=DIRECTION('center_axis',(0.,1.,0.));
#1307=DIRECTION('ref_axis',(-1.,0.,0.));
#1308=DIRECTION('center_axis',(0.,1.,0.));
#1309=DIRECTION('ref_axis',(-1.,0.,0.));
#1310=DIRECTION('center_axis',(0.,-1.,0.));
#1311=DIRECTION('ref_axis',(0.,0.,-1.));
#1312=DIRECTION('',(1.,0.,0.));
#1313=DIRECTION('',(0.,0.,1.));
#1314=DIRECTION('',(1.,0.,0.));
#1315=DIRECTION('',(0.,0.,-1.));
#1316=DIRECTION('',(-1.,0.,0.));
#1317=DIRECTION('',(0.,0.,1.));
#1318=DIRECTION('',(1.,0.,0.));
#1319=DIRECTION('',(0.,0.,-1.));
#1320=DIRECTION('',(-1.,0.,0.));
#1321=DIRECTION('',(0.,0.,-1.));
#1322=DIRECTION('center_axis',(0.,0.,1.));
#1323=DIRECTION('ref_axis',(1.,0.,0.));
#1324=DIRECTION('',(0.,1.,0.));
#1325=DIRECTION('',(-1.,0.,0.));
#1326=DIRECTION('',(0.,1.,0.));
#1327=DIRECTION('center_axis',(-1.,0.,0.));
#1328=DIRECTION('ref_axis',(0.,0.,1.));
#1329=DIRECTION('',(0.,1.,0.));
#1330=DIRECTION('',(0.,0.,-1.));
#1331=DIRECTION('center_axis',(0.,0.,-1.));
#1332=DIRECTION('ref_axis',(-1.,0.,0.));
#1333=DIRECTION('',(0.,-1.,0.));
#1334=DIRECTION('',(-1.,0.,0.));
#1335=DIRECTION('',(0.,-1.,0.));
#1336=DIRECTION('',(1.,0.,0.));
#1337=DIRECTION('',(-1.,0.,0.));
#1338=DIRECTION('',(0.,1.,0.));
#1339=DIRECTION('',(-1.,0.,0.));
#1340=DIRECTION('center_axis',(-1.,0.,0.));
#1341=DIRECTION('ref_axis',(0.,0.,1.));
#1342=DIRECTION('',(0.,-1.,0.));
#1343=DIRECTION('',(0.,0.,1.));
#1344=DIRECTION('',(0.,-1.,0.));
#1345=DIRECTION('',(0.,0.,1.));
#1346=DIRECTION('center_axis',(0.,0.,1.));
#1347=DIRECTION('ref_axis',(1.,0.,0.));
#1348=DIRECTION('',(0.,-1.,0.));
#1349=DIRECTION('',(0.,-1.,0.));
#1350=DIRECTION('',(1.,0.,0.));
#1351=DIRECTION('',(1.,0.,0.));
#1352=DIRECTION('center_axis',(1.,0.,0.));
#1353=DIRECTION('ref_axis',(0.,0.,-1.));
#1354=DIRECTION('',(0.,1.,0.));
#1355=DIRECTION('',(0.,0.,-1.));
#1356=DIRECTION('',(0.,-1.,0.));
#1357=DIRECTION('',(0.,0.,1.));
#1358=DIRECTION('center_axis',(1.,0.,0.));
#1359=DIRECTION('ref_axis',(0.,0.,-1.));
#1360=DIRECTION('',(0.,0.,1.));
#1361=DIRECTION('',(0.,1.,0.));
#1362=DIRECTION('',(0.,0.,-1.));
#1363=DIRECTION('center_axis',(-1.,0.,0.));
#1364=DIRECTION('ref_axis',(0.,0.,1.));
#1365=DIRECTION('',(0.,-1.,0.));
#1366=DIRECTION('',(0.,0.,1.));
#1367=DIRECTION('',(0.,1.,0.));
#1368=DIRECTION('center_axis',(0.,0.,-1.));
#1369=DIRECTION('ref_axis',(-1.,0.,0.));
#1370=DIRECTION('',(-1.,0.,0.));
#1371=DIRECTION('',(1.,0.,0.));
#1372=DIRECTION('',(0.,1.,0.));
#1373=DIRECTION('center_axis',(0.,1.,0.));
#1374=DIRECTION('ref_axis',(1.,0.,0.));
#1375=DIRECTION('',(0.,0.,-1.));
#1376=DIRECTION('',(1.,0.,0.));
#1377=DIRECTION('center_axis',(0.,0.,1.));
#1378=DIRECTION('ref_axis',(0.,1.,0.));
#1379=DIRECTION('',(-1.,0.,0.));
#1380=DIRECTION('',(0.,1.,0.));
#1381=DIRECTION('',(-1.,0.,0.));
#1382=DIRECTION('center_axis',(0.,1.,0.));
#1383=DIRECTION('ref_axis',(0.,0.,-1.));
#1384=DIRECTION('',(0.,0.,-1.));
#1385=DIRECTION('center_axis',(-1.,0.,0.));
#1386=DIRECTION('ref_axis',(0.,0.,1.));
#1387=DIRECTION('',(0.,0.,1.));
#1388=DIRECTION('center_axis',(0.,1.,0.));
#1389=DIRECTION('ref_axis',(-1.,0.,0.));
#1390=DIRECTION('',(-1.,0.,0.));
#1391=DIRECTION('',(1.,0.,0.));
#1392=DIRECTION('',(0.,0.,1.));
#1393=DIRECTION('center_axis',(0.,1.,0.));
#1394=DIRECTION('ref_axis',(1.,0.,0.));
#1395=DIRECTION('center_axis',(1.,0.,0.));
#1396=DIRECTION('ref_axis',(0.,0.,-1.));
#1397=DIRECTION('',(0.,1.,0.));
#1398=DIRECTION('center_axis',(1.,0.,0.));
#1399=DIRECTION('ref_axis',(0.,-1.,0.));
#1400=DIRECTION('',(0.,0.,-1.));
#1401=DIRECTION('',(0.,-1.,0.));
#1402=DIRECTION('',(0.,0.,-1.));
#1403=DIRECTION('center_axis',(0.,-1.,0.));
#1404=DIRECTION('ref_axis',(-1.,0.,0.));
#1405=DIRECTION('',(-1.,0.,0.));
#1406=DIRECTION('center_axis',(0.,0.,-1.));
#1407=DIRECTION('ref_axis',(-1.,0.,0.));
#1408=DIRECTION('center_axis',(0.,0.,-1.));
#1409=DIRECTION('ref_axis',(-1.,0.,0.));
#1410=DIRECTION('center_axis',(0.,1.,0.));
#1411=DIRECTION('ref_axis',(0.,0.,1.));
#1412=DIRECTION('center_axis',(0.,-1.,0.));
#1413=DIRECTION('ref_axis',(1.,0.,0.));
#1414=DIRECTION('center_axis',(0.,-1.,0.));
#1415=DIRECTION('ref_axis',(-1.,0.,0.));
#1416=DIRECTION('center_axis',(0.,-1.,0.));
#1417=DIRECTION('ref_axis',(-1.,0.,0.));
#1418=DIRECTION('center_axis',(0.,-1.,0.));
#1419=DIRECTION('ref_axis',(-1.,0.,0.));
#1420=DIRECTION('center_axis',(0.,-1.,0.));
#1421=DIRECTION('ref_axis',(-1.,0.,0.));
#1422=DIRECTION('center_axis',(0.,1.,0.));
#1423=DIRECTION('ref_axis',(-1.,0.,0.));
#1424=DIRECTION('',(0.,-1.,0.));
#1425=DIRECTION('center_axis',(0.,1.,0.));
#1426=DIRECTION('ref_axis',(-1.,0.,0.));
#1427=DIRECTION('',(0.,-1.,0.));
#1428=DIRECTION('center_axis',(0.,1.,0.));
#1429=DIRECTION('ref_axis',(-1.,0.,0.));
#1430=DIRECTION('',(0.,-1.,0.));
#1431=DIRECTION('center_axis',(0.,1.,0.));
#1432=DIRECTION('ref_axis',(-1.,0.,0.));
#1433=DIRECTION('',(0.,-1.,0.));
#1434=DIRECTION('center_axis',(0.,1.,0.));
#1435=DIRECTION('ref_axis',(1.,0.,0.));
#1436=DIRECTION('',(0.,1.,0.));
#1437=DIRECTION('center_axis',(0.,0.,1.));
#1438=DIRECTION('ref_axis',(1.,0.,0.));
#1439=DIRECTION('',(0.,1.,0.));
#1440=DIRECTION('',(-1.,0.,0.));
#1441=DIRECTION('',(0.,1.,0.));
#1442=DIRECTION('',(1.,0.,0.));
#1443=DIRECTION('center_axis',(-1.,0.,0.));
#1444=DIRECTION('ref_axis',(0.,0.,1.));
#1445=DIRECTION('',(0.,1.,0.));
#1446=DIRECTION('',(0.,0.,-1.));
#1447=DIRECTION('',(0.,0.,1.));
#1448=DIRECTION('center_axis',(1.,0.,0.));
#1449=DIRECTION('ref_axis',(0.,0.,-1.));
#1450=DIRECTION('',(0.,0.,1.));
#1451=DIRECTION('',(0.,1.,0.));
#1452=DIRECTION('',(0.,0.,-1.));
#1453=DIRECTION('center_axis',(0.,0.,-1.));
#1454=DIRECTION('ref_axis',(-1.,0.,0.));
#1455=DIRECTION('',(1.,0.,0.));
#1456=DIRECTION('',(-1.,0.,0.));
#1457=DIRECTION('center_axis',(0.,1.,0.));
#1458=DIRECTION('ref_axis',(-1.,0.,0.));
#1459=DIRECTION('center_axis',(0.,-1.,0.));
#1460=DIRECTION('ref_axis',(1.,0.,0.));
#1461=DIRECTION('center_axis',(0.,1.,0.));
#1462=DIRECTION('ref_axis',(0.,0.,1.));
#1463=DIRECTION('center_axis',(0.,1.,0.));
#1464=DIRECTION('ref_axis',(1.,0.,0.));
#1465=DIRECTION('center_axis',(0.,1.,0.));
#1466=DIRECTION('ref_axis',(1.,0.,0.));
#1467=DIRECTION('',(0.,1.,0.));
#1468=CARTESIAN_POINT('',(0.,0.,0.));
#1469=CARTESIAN_POINT('Origin',(190.000001192093,4.,40.0000005960464));
#1470=CARTESIAN_POINT('',(150.000000596046,4.,40.0000005960464));
#1471=CARTESIAN_POINT('Origin',(190.000001192093,4.,40.0000005960464));
#1472=CARTESIAN_POINT('',(152.500001192093,4.,40.0000005960464));
#1473=CARTESIAN_POINT('Origin',(190.000001192093,4.,40.0000005960464));
#1474=CARTESIAN_POINT('Origin',(190.000001192093,34.,40.0000005960464));
#1475=CARTESIAN_POINT('',(152.500001192093,1.,40.0000005960464));
#1476=CARTESIAN_POINT('Origin',(190.000001192093,1.,40.0000005960464));
#1477=CARTESIAN_POINT('',(152.500001192093,34.,40.0000005960464));
#1478=CARTESIAN_POINT('Origin',(190.000001192093,34.,40.0000005960464));
#1479=CARTESIAN_POINT('',(150.000000596046,1.,40.0000005960464));
#1480=CARTESIAN_POINT('Origin',(190.000001192093,1.,40.0000005960464));
#1481=CARTESIAN_POINT('',(150.000000596046,34.,40.0000005960464));
#1482=CARTESIAN_POINT('Origin',(190.000001192093,1.,40.0000005960464));
#1483=CARTESIAN_POINT('Origin',(210.,27.,8.89999992400408));
#1484=CARTESIAN_POINT('',(210.,24.,27.8999999240041));
#1485=CARTESIAN_POINT('',(210.,24.,8.89999992400408));
#1486=CARTESIAN_POINT('',(210.,24.,24.4500009119511));
#1487=CARTESIAN_POINT('',(210.,27.,27.8999999240041));
#1488=CARTESIAN_POINT('',(210.,27.,27.8999999240041));
#1489=CARTESIAN_POINT('',(210.,27.,8.89999992400408));
#1490=CARTESIAN_POINT('',(210.,27.,24.4500009119511));
#1491=CARTESIAN_POINT('',(210.,27.,8.89999992400408));
#1492=CARTESIAN_POINT('Origin',(170.,27.,8.89999992400408));
#1493=CARTESIAN_POINT('',(170.,24.,8.89999992400408));
#1494=CARTESIAN_POINT('',(180.,24.,8.89999992400408));
#1495=CARTESIAN_POINT('',(170.,27.,8.89999992400408));
#1496=CARTESIAN_POINT('',(180.,27.,8.89999992400408));
#1497=CARTESIAN_POINT('',(170.,27.,8.89999992400408));
#1498=CARTESIAN_POINT('Origin',(170.,27.,27.8999999240041));
#1499=CARTESIAN_POINT('',(170.,24.,27.8999999240041));
#1500=CARTESIAN_POINT('',(170.,24.,33.9500009119511));
#1501=CARTESIAN_POINT('',(170.,27.,27.8999999240041));
#1502=CARTESIAN_POINT('',(170.,27.,33.9500009119511));
#1503=CARTESIAN_POINT('',(170.,27.,27.8999999240041));
#1504=CARTESIAN_POINT('Origin',(210.,27.,27.8999999240041));
#1505=CARTESIAN_POINT('',(200.,24.,27.8999999240041));
#1506=CARTESIAN_POINT('',(200.,27.,27.8999999240041));
#1507=CARTESIAN_POINT('Origin',(210.00000196402,27.,45.600003875792));
#1508=CARTESIAN_POINT('',(210.00000196402,24.,64.600003875792));
#1509=CARTESIAN_POINT('',(210.00000196402,24.,45.600003875792));
#1510=CARTESIAN_POINT('',(210.00000196402,24.,42.800002887845));
#1511=CARTESIAN_POINT('',(210.00000196402,27.,64.600003875792));
#1512=CARTESIAN_POINT('',(210.00000196402,27.,64.600003875792));
#1513=CARTESIAN_POINT('',(210.00000196402,27.,45.600003875792));
#1514=CARTESIAN_POINT('',(210.00000196402,27.,42.800002887845));
#1515=CARTESIAN_POINT('',(210.00000196402,27.,45.600003875792));
#1516=CARTESIAN_POINT('Origin',(170.00000196402,27.,45.600003875792));
#1517=CARTESIAN_POINT('',(170.00000196402,24.,45.600003875792));
#1518=CARTESIAN_POINT('',(180.00000098201,24.,45.600003875792));
#1519=CARTESIAN_POINT('',(170.00000196402,27.,45.600003875792));
#1520=CARTESIAN_POINT('',(180.00000098201,27.,45.600003875792));
#1521=CARTESIAN_POINT('',(170.00000196402,27.,45.600003875792));
#1522=CARTESIAN_POINT('Origin',(170.00000196402,27.,64.600003875792));
#1523=CARTESIAN_POINT('',(170.00000196402,24.,64.600003875792));
#1524=CARTESIAN_POINT('',(170.00000196402,24.,52.300002887845));
#1525=CARTESIAN_POINT('',(170.00000196402,27.,64.600003875792));
#1526=CARTESIAN_POINT('',(170.00000196402,27.,52.300002887845));
#1527=CARTESIAN_POINT('',(170.00000196402,27.,64.600003875792));
#1528=CARTESIAN_POINT('Origin',(210.00000196402,27.,64.600003875792));
#1529=CARTESIAN_POINT('',(200.00000098201,24.,64.600003875792));
#1530=CARTESIAN_POINT('',(200.00000098201,27.,64.600003875792));
#1531=CARTESIAN_POINT('Origin',(153.150000823662,24.,77.099077627879));
#1532=CARTESIAN_POINT('',(151.849074727738,24.,77.099077627879));
#1533=CARTESIAN_POINT('Origin',(153.150000823662,24.,77.099077627879));
#1534=CARTESIAN_POINT('',(151.849074727738,27.,77.099077627879));
#1535=CARTESIAN_POINT('',(151.849074727738,24.,77.099077627879));
#1536=CARTESIAN_POINT('Origin',(153.150000823662,27.,77.099077627879));
#1537=CARTESIAN_POINT('Origin',(226.849999176338,24.,77.1000422340289));
#1538=CARTESIAN_POINT('',(225.549999204652,24.,77.1000422340289));
#1539=CARTESIAN_POINT('Origin',(226.849999176338,24.,77.1000422340289));
#1540=CARTESIAN_POINT('',(225.549999204652,27.,77.1000422340289));
#1541=CARTESIAN_POINT('',(225.549999204652,24.,77.1000422340289));
#1542=CARTESIAN_POINT('Origin',(226.849999176338,27.,77.1000422340289));
#1543=CARTESIAN_POINT('Origin',(226.850960714778,24.,2.89996295293225));
#1544=CARTESIAN_POINT('',(225.54999920487,24.,2.89996295293225));
#1545=CARTESIAN_POINT('Origin',(226.850960714778,24.,2.89996295293225));
#1546=CARTESIAN_POINT('',(225.54999920487,27.,2.89996295293225));
#1547=CARTESIAN_POINT('',(225.54999920487,24.,2.89996295293225));
#1548=CARTESIAN_POINT('Origin',(226.850960714778,27.,2.89996295293225));
#1549=CARTESIAN_POINT('Origin',(153.149959788179,24.,2.90000013774261));
#1550=CARTESIAN_POINT('',(151.849959725863,27.,2.90000013774261));
#1551=CARTESIAN_POINT('Origin',(153.149959788179,27.,2.90000013774261));
#1552=CARTESIAN_POINT('',(151.849959725863,24.,2.90000013774261));
#1553=CARTESIAN_POINT('',(151.849959725863,24.,2.90000013774261));
#1554=CARTESIAN_POINT('Origin',(153.149959788179,24.,2.90000013774261));
#1555=CARTESIAN_POINT('Origin',(231.35000196402,24.,81.600003875792));
#1556=CARTESIAN_POINT('',(231.35000196402,24.,-1.60000007599592));
#1557=CARTESIAN_POINT('',(231.35000196402,24.,81.600003875792));
#1558=CARTESIAN_POINT('',(231.35000196402,24.,-1.60000007599592));
#1559=CARTESIAN_POINT('',(231.35000196402,27.,-1.60000007599592));
#1560=CARTESIAN_POINT('',(231.35000196402,24.,-1.60000007599592));
#1561=CARTESIAN_POINT('',(231.35000196402,27.,81.600003875792));
#1562=CARTESIAN_POINT('',(231.35000196402,27.,-1.60000007599592));
#1563=CARTESIAN_POINT('',(231.35000196402,24.,81.600003875792));
#1564=CARTESIAN_POINT('Origin',(148.64999803598,24.,81.600003875792));
#1565=CARTESIAN_POINT('',(148.64999803598,24.,81.600003875792));
#1566=CARTESIAN_POINT('',(231.35000196402,24.,81.600003875792));
#1567=CARTESIAN_POINT('',(148.64999803598,27.,81.600003875792));
#1568=CARTESIAN_POINT('',(231.35000196402,27.,81.600003875792));
#1569=CARTESIAN_POINT('',(148.64999803598,24.,81.600003875792));
#1570=CARTESIAN_POINT('Origin',(148.64999803598,24.,-1.60000007599592));
#1571=CARTESIAN_POINT('',(148.64999803598,24.,-1.60000007599592));
#1572=CARTESIAN_POINT('',(148.64999803598,24.,81.600003875792));
#1573=CARTESIAN_POINT('',(148.64999803598,27.,-1.60000007599592));
#1574=CARTESIAN_POINT('',(148.64999803598,27.,81.600003875792));
#1575=CARTESIAN_POINT('',(148.64999803598,24.,-1.60000007599592));
#1576=CARTESIAN_POINT('Origin',(231.35000196402,24.,-1.60000007599592));
#1577=CARTESIAN_POINT('',(148.64999803598,24.,-1.60000007599592));
#1578=CARTESIAN_POINT('',(148.64999803598,27.,-1.60000007599592));
#1579=CARTESIAN_POINT('Origin',(190.,27.,40.0000018998981));
#1580=CARTESIAN_POINT('Origin',(190.,24.,40.0000018998981));
#1581=CARTESIAN_POINT('Origin',(153.15,28.,77.1));
#1582=CARTESIAN_POINT('',(154.45,28.,77.1));
#1583=CARTESIAN_POINT('Origin',(153.15,28.,77.1));
#1584=CARTESIAN_POINT('Origin',(226.85,28.,2.9));
#1585=CARTESIAN_POINT('',(228.15,28.,2.9));
#1586=CARTESIAN_POINT('Origin',(226.85,28.,2.9));
#1587=CARTESIAN_POINT('Origin',(226.85,28.,77.1));
#1588=CARTESIAN_POINT('',(228.15,28.,77.1));
#1589=CARTESIAN_POINT('Origin',(226.85,28.,77.1));
#1590=CARTESIAN_POINT('Origin',(153.15,28.,2.9));
#1591=CARTESIAN_POINT('',(154.45,28.,2.9));
#1592=CARTESIAN_POINT('Origin',(153.15,28.,2.9));
#1593=CARTESIAN_POINT('Origin',(190.,25.,81.1));
#1594=CARTESIAN_POINT('',(148.65,25.,81.6));
#1595=CARTESIAN_POINT('',(231.35,25.,81.6));
#1596=CARTESIAN_POINT('',(210.175,25.,81.6));
#1597=CARTESIAN_POINT('',(148.65,25.,-1.6));
#1598=CARTESIAN_POINT('',(148.650000901893,25.,80.85));
#1599=CARTESIAN_POINT('',(147.65,25.,-1.6));
#1600=CARTESIAN_POINT('',(210.175,25.,-1.6));
#1601=CARTESIAN_POINT('',(147.65,25.,82.6));
#1602=CARTESIAN_POINT('',(147.65,25.,40.25));
#1603=CARTESIAN_POINT('',(232.35,25.,82.6));
#1604=CARTESIAN_POINT('',(169.325,25.,82.6));
#1605=CARTESIAN_POINT('',(232.35,25.,-2.6));
#1606=CARTESIAN_POINT('',(232.35,25.,81.35));
#1607=CARTESIAN_POINT('',(147.65,25.,-2.6));
#1608=CARTESIAN_POINT('',(210.675,25.,-2.6));
#1609=CARTESIAN_POINT('',(147.65,25.,-1.60008590769213));
#1610=CARTESIAN_POINT('',(147.65,25.,39.75));
#1611=CARTESIAN_POINT('',(231.35,25.,-1.60008590769213));
#1612=CARTESIAN_POINT('',(169.325,25.,-1.60008590769213));
#1613=CARTESIAN_POINT('',(231.35,25.,40.2499570461539));
#1614=CARTESIAN_POINT('Origin',(148.65,0.,82.6));
#1615=CARTESIAN_POINT('',(147.65,1.,82.6));
#1616=CARTESIAN_POINT('',(147.65,0.,82.6));
#1617=CARTESIAN_POINT('',(232.35,1.,82.6));
#1618=CARTESIAN_POINT('',(148.65,1.,82.6));
#1619=CARTESIAN_POINT('',(232.35,0.,82.6));
#1620=CARTESIAN_POINT('Origin',(147.65,0.,-0.600000000000005));
#1621=CARTESIAN_POINT('',(147.65,1.,-1.6));
#1622=CARTESIAN_POINT('',(147.65,0.,-1.6));
#1623=CARTESIAN_POINT('',(147.65,1.,-0.600000000000005));
#1624=CARTESIAN_POINT('Origin',(230.35,0.,-1.6));
#1625=CARTESIAN_POINT('',(148.650000901893,7.,-1.59999998658895));
#1626=CARTESIAN_POINT('',(148.650000901893,0.,-1.6));
#1627=CARTESIAN_POINT('',(148.149999411404,7.,-1.6));
#1628=CARTESIAN_POINT('',(189.749999705702,7.,-1.6));
#1629=CARTESIAN_POINT('',(148.149999411404,4.,-1.6));
#1630=CARTESIAN_POINT('',(148.149999411404,2.,-1.6));
#1631=CARTESIAN_POINT('',(150.499999411404,4.,-1.6));
#1632=CARTESIAN_POINT('',(190.424999705702,4.,-1.6));
#1633=CARTESIAN_POINT('',(231.350000581145,4.,-1.6));
#1634=CARTESIAN_POINT('',(190.424999705702,4.,-1.6));
#1635=CARTESIAN_POINT('',(231.35,1.,-1.6));
#1636=CARTESIAN_POINT('',(231.35,0.,-1.6));
#1637=CARTESIAN_POINT('',(148.65,1.,-1.6));
#1638=CARTESIAN_POINT('Origin',(148.650000901893,0.,80.6));
#1639=CARTESIAN_POINT('',(148.65,4.,81.6));
#1640=CARTESIAN_POINT('',(148.65,0.,81.6));
#1641=CARTESIAN_POINT('',(148.650000901893,4.,80.5000011995435));
#1642=CARTESIAN_POINT('',(148.65,4.,80.6));
#1643=CARTESIAN_POINT('',(148.650000901893,7.,80.5000011995435));
#1644=CARTESIAN_POINT('',(148.650000901893,4.,80.5000011995435));
#1645=CARTESIAN_POINT('',(148.650000901893,7.,-0.599999986588955));
#1646=CARTESIAN_POINT('Origin',(230.35,0.,81.6));
#1647=CARTESIAN_POINT('',(231.350001916522,7.,81.6000038282946));
#1648=CARTESIAN_POINT('',(231.35,0.,81.6));
#1649=CARTESIAN_POINT('',(231.35,4.,81.6));
#1650=CARTESIAN_POINT('',(231.350001916522,4.,81.6000038282946));
#1651=CARTESIAN_POINT('',(230.35,4.,81.6));
#1652=CARTESIAN_POINT('',(230.35,4.,81.6));
#1653=CARTESIAN_POINT('',(149.65,4.,81.6));
#1654=CARTESIAN_POINT('Origin',(231.35,0.,-0.600085907692129));
#1655=CARTESIAN_POINT('',(231.350000581145,7.,-1.60008590769213));
#1656=CARTESIAN_POINT('',(231.35,0.,-1.60008590769213));
#1657=CARTESIAN_POINT('',(231.350000581145,7.,-1.14999999254942));
#1658=CARTESIAN_POINT('',(231.350000581145,7.,-0.600085907692129));
#1659=CARTESIAN_POINT('',(231.350000581145,4.,-1.14999999254942));
#1660=CARTESIAN_POINT('',(231.350000581145,4.,-1.14999999254942));
#1661=CARTESIAN_POINT('',(231.35,4.,-0.600042953846067));
#1662=CARTESIAN_POINT('Origin',(231.35,0.,-0.600085907692129));
#1663=CARTESIAN_POINT('',(231.350000581145,4.,-1.60008590769213));
#1664=CARTESIAN_POINT('',(231.350000581145,4.,-0.600085907692129));
#1665=CARTESIAN_POINT('',(231.35,1.,-1.60008590769213));
#1666=CARTESIAN_POINT('',(231.35,0.,-1.60008590769213));
#1667=CARTESIAN_POINT('',(231.35,1.,19.6999570461539));
#1668=CARTESIAN_POINT('Origin',(147.65,0.,-1.6));
#1669=CARTESIAN_POINT('',(147.65,1.,-2.6));
#1670=CARTESIAN_POINT('',(147.65,0.,-2.6));
#1671=CARTESIAN_POINT('',(147.65,1.,-1.60008590769213));
#1672=CARTESIAN_POINT('',(147.65,1.,19.2));
#1673=CARTESIAN_POINT('',(147.65,0.,-1.60008590769213));
#1674=CARTESIAN_POINT('Origin',(150.499999411404,4.,-1.14999999254942));
#1675=CARTESIAN_POINT('',(150.499999411404,4.,-1.14999999254942));
#1676=CARTESIAN_POINT('',(150.499999411404,4.,-1.14999999254942));
#1677=CARTESIAN_POINT('',(150.499999411404,7.,-1.14999999254942));
#1678=CARTESIAN_POINT('',(190.424999996275,7.,-1.14999999254942));
#1679=CARTESIAN_POINT('',(150.499999411404,5.5,-1.14999999254942));
#1680=CARTESIAN_POINT('Origin',(150.499999411404,4.,-0.600085907692129));
#1681=CARTESIAN_POINT('',(150.499999411404,4.,-1.60008590769213));
#1682=CARTESIAN_POINT('',(150.499999411404,4.,-0.600085907692129));
#1683=CARTESIAN_POINT('',(230.350000581145,4.,-1.60008590769213));
#1684=CARTESIAN_POINT('Origin',(149.149999411404,4.,80.5000011995435));
#1685=CARTESIAN_POINT('',(148.149999411404,4.,80.5000011995435));
#1686=CARTESIAN_POINT('',(149.149999411404,4.,80.5000011995435));
#1687=CARTESIAN_POINT('',(148.149999411404,7.,80.5000011995435));
#1688=CARTESIAN_POINT('',(148.149999411404,7.,80.5000011995435));
#1689=CARTESIAN_POINT('',(149.149999411404,7.,80.5000011995435));
#1690=CARTESIAN_POINT('Origin',(149.149999411404,7.,80.5000011995435));
#1691=CARTESIAN_POINT('',(148.149999411404,7.,-0.600000000000005));
#1692=CARTESIAN_POINT('Origin',(148.149999411404,4.,79.0000011771917));
#1693=CARTESIAN_POINT('',(148.149999411404,4.,79.0000011771917));
#1694=CARTESIAN_POINT('Origin',(190.,1.,40.));
#1695=CARTESIAN_POINT('',(148.65,1.,-1.60008590769213));
#1696=CARTESIAN_POINT('',(232.35,1.,-2.6));
#1697=CARTESIAN_POINT('',(231.35,1.,-2.6));
#1698=CARTESIAN_POINT('',(232.35,1.,81.6));
#1699=CARTESIAN_POINT('',(149.999999403954,1.,40.0000005960464));
#1700=CARTESIAN_POINT('Origin',(190.,1.,40.0000005960464));
#1701=CARTESIAN_POINT('Origin',(232.35,0.,81.6));
#1702=CARTESIAN_POINT('',(232.35,0.,-2.6));
#1703=CARTESIAN_POINT('Origin',(150.499999411404,7.,-0.600085907692129));
#1704=CARTESIAN_POINT('',(150.499999411404,7.,-1.60008590769213));
#1705=CARTESIAN_POINT('',(150.499999411404,7.,-0.600085907692129));
#1706=CARTESIAN_POINT('',(150.499999411404,2.,-1.60008590769213));
#1707=CARTESIAN_POINT('',(150.499999411404,4.,-0.600085907692129));
#1708=CARTESIAN_POINT('Origin',(230.350000581145,7.,-0.600085907692129));
#1709=CARTESIAN_POINT('',(149.574999705702,7.,-1.60008590769213));
#1710=CARTESIAN_POINT('Origin',(148.65,0.,-1.60008590769213));
#1711=CARTESIAN_POINT('Origin',(231.35,0.,-2.6));
#1712=CARTESIAN_POINT('Origin',(190.,4.,40.));
#1713=CARTESIAN_POINT('',(149.999999403954,4.,40.0000005960464));
#1714=CARTESIAN_POINT('Origin',(190.,4.,40.0000005960464));
#1715=CARTESIAN_POINT('',(154.45,4.,2.9));
#1716=CARTESIAN_POINT('Origin',(153.15,4.,2.9));
#1717=CARTESIAN_POINT('',(154.45,4.,77.1));
#1718=CARTESIAN_POINT('Origin',(153.15,4.,77.1));
#1719=CARTESIAN_POINT('',(228.15,4.,2.9));
#1720=CARTESIAN_POINT('Origin',(226.85,4.,2.9));
#1721=CARTESIAN_POINT('',(228.15,4.,77.1));
#1722=CARTESIAN_POINT('Origin',(226.85,4.,77.1));
#1723=CARTESIAN_POINT('Origin',(226.85,4.,77.1));
#1724=CARTESIAN_POINT('',(228.15,4.,77.1));
#1725=CARTESIAN_POINT('Origin',(226.85,4.,2.9));
#1726=CARTESIAN_POINT('',(228.15,4.,2.9));
#1727=CARTESIAN_POINT('Origin',(153.15,4.,77.1));
#1728=CARTESIAN_POINT('',(154.45,4.,77.1));
#1729=CARTESIAN_POINT('Origin',(153.15,4.,2.9));
#1730=CARTESIAN_POINT('',(154.45,4.,2.9));
#1731=CARTESIAN_POINT('Origin',(190.,2.01,40.0000005960464));
#1732=CARTESIAN_POINT('',(149.999999403954,2.01,40.0000005960465));
#1733=CARTESIAN_POINT('Origin',(164.75,0.,56.25));
#1734=CARTESIAN_POINT('',(164.75,1.,56.25));
#1735=CARTESIAN_POINT('',(164.75,4.,56.25));
#1736=CARTESIAN_POINT('',(164.75,0.,56.25));
#1737=CARTESIAN_POINT('',(215.25,4.,56.25));
#1738=CARTESIAN_POINT('',(177.375,4.,56.25));
#1739=CARTESIAN_POINT('',(215.25,1.,56.25));
#1740=CARTESIAN_POINT('',(215.25,0.,56.25));
#1741=CARTESIAN_POINT('',(177.375,1.,56.25));
#1742=CARTESIAN_POINT('Origin',(164.75,0.,36.75));
#1743=CARTESIAN_POINT('',(164.75,1.,36.75));
#1744=CARTESIAN_POINT('',(164.75,4.,36.75));
#1745=CARTESIAN_POINT('',(164.75,0.,36.75));
#1746=CARTESIAN_POINT('',(164.75,4.,38.375));
#1747=CARTESIAN_POINT('',(164.75,1.,38.375));
#1748=CARTESIAN_POINT('Origin',(215.25,0.,56.25));
#1749=CARTESIAN_POINT('',(215.25,4.,36.75));
#1750=CARTESIAN_POINT('',(215.25,4.,48.125));
#1751=CARTESIAN_POINT('',(215.25,1.,36.75));
#1752=CARTESIAN_POINT('',(215.25,0.,36.75));
#1753=CARTESIAN_POINT('',(215.25,1.,48.125));
#1754=CARTESIAN_POINT('Origin',(215.25,0.,36.75));
#1755=CARTESIAN_POINT('',(202.625,4.,36.75));
#1756=CARTESIAN_POINT('',(202.625,1.,36.75));
#1757=CARTESIAN_POINT('Origin',(190.,1.,40.));
#1758=CARTESIAN_POINT('',(152.500001192093,1.,40.0000005960464));
#1759=CARTESIAN_POINT('Origin',(190.000001192093,1.,40.0000005960464));
#1760=CARTESIAN_POINT('Origin',(190.,4.,40.));
#1761=CARTESIAN_POINT('',(152.500001192093,4.,40.0000005960464));
#1762=CARTESIAN_POINT('Origin',(190.000001192093,4.,40.0000005960464));
#1763=CARTESIAN_POINT('Origin',(190.000001192093,1.,40.0000005960464));
#1764=CARTESIAN_POINT('',(152.500001192093,1.,40.0000005960464));
#1765=UNCERTAINTY_MEASURE_WITH_UNIT(LENGTH_MEASURE(0.01),#1769,
'DISTANCE_ACCURACY_VALUE',
'Maximum model space distance between geometric entities at asserted c
onnectivities');
#1766=UNCERTAINTY_MEASURE_WITH_UNIT(LENGTH_MEASURE(0.01),#1769,
'DISTANCE_ACCURACY_VALUE',
'Maximum model space distance between geometric entities at asserted c
onnectivities');
#1767=(
GEOMETRIC_REPRESENTATION_CONTEXT(3)
GLOBAL_UNCERTAINTY_ASSIGNED_CONTEXT((#1765))
GLOBAL_UNIT_ASSIGNED_CONTEXT((#1769,#1771,#1772))
REPRESENTATION_CONTEXT('','3D')
);
#1768=(
GEOMETRIC_REPRESENTATION_CONTEXT(3)
GLOBAL_UNCERTAINTY_ASSIGNED_CONTEXT((#1766))
GLOBAL_UNIT_ASSIGNED_CONTEXT((#1769,#1771,#1772))
REPRESENTATION_CONTEXT('','3D')
);
#1769=(
LENGTH_UNIT()
NAMED_UNIT(*)
SI_UNIT(.MILLI.,.METRE.)
);
#1770=(
LENGTH_UNIT()
NAMED_UNIT(*)
SI_UNIT($,.METRE.)
);
#1771=(
NAMED_UNIT(*)
PLANE_ANGLE_UNIT()
SI_UNIT($,.RADIAN.)
);
#1772=(
NAMED_UNIT(*)
SI_UNIT($,.STERADIAN.)
SOLID_ANGLE_UNIT()
);
#1773=SHAPE_DEFINITION_REPRESENTATION(#1774,#1775);
#1774=PRODUCT_DEFINITION_SHAPE('',$,#1777);
#1775=SHAPE_REPRESENTATION('',(#1098),#1767);
#1776=PRODUCT_DEFINITION_CONTEXT('part definition',#1781,'design');
#1777=PRODUCT_DEFINITION('Bez nazwy','Bez nazwy v3',#1778,#1776);
#1778=PRODUCT_DEFINITION_FORMATION('',$,#1783);
#1779=PRODUCT_RELATED_PRODUCT_CATEGORY('Bez nazwy v3','Bez nazwy v3',(#1783));
#1780=APPLICATION_PROTOCOL_DEFINITION('international standard',
'automotive_design',2009,#1781);
#1781=APPLICATION_CONTEXT(
'Core Data for Automotive Mechanical Design Process');
#1782=PRODUCT_CONTEXT('part definition',#1781,'mechanical');
#1783=PRODUCT('Bez nazwy','Bez nazwy v3',$,(#1782));
#1784=PRESENTATION_STYLE_ASSIGNMENT((#1785));
#1785=SURFACE_STYLE_USAGE(.BOTH.,#1786);
#1786=SURFACE_SIDE_STYLE('',(#1787));
#1787=SURFACE_STYLE_FILL_AREA(#1788);
#1788=FILL_AREA_STYLE('Stal \X2\2014\X0\ satynowa',(#1789));
#1789=FILL_AREA_STYLE_COLOUR('Stal \X2\2014\X0\ satynowa',#1790);
#1790=COLOUR_RGB('Stal \X2\2014\X0\ satynowa',0.627450980392157,0.627450980392157,
0.627450980392157);
ENDSEC;
END-ISO-10303-21;
